<?xml version="1.0" encoding="UTF-8" standalone="no"?>
<svg
   version="1.0"
   width="2700pt"
   height="2700pt"
   viewBox="0 0 2700 2700"
   preserveAspectRatio="xMidYMid meet"
   id="svg1"
   sodipodi:docname="projekt_laser_logo_v3_blau.svg"
   inkscape:version="1.3.2 (091e20e, 2023-11-25, custom)"
   xmlns:inkscape="http://www.inkscape.org/namespaces/inkscape"
   xmlns:sodipodi="http://sodipodi.sourceforge.net/DTD/sodipodi-0.dtd"
   xmlns="http://www.w3.org/2000/svg"
   xmlns:svg="http://www.w3.org/2000/svg">
  <defs
     id="defs1" />
  <sodipodi:namedview
     id="namedview1"
     pagecolor="#ffffff"
     bordercolor="#111111"
     borderopacity="1"
     inkscape:showpageshadow="0"
     inkscape:pageopacity="0"
     inkscape:pagecheckerboard="1"
     inkscape:deskcolor="#d1d1d1"
     inkscape:document-units="pt"
     inkscape:zoom="0.18583333"
     inkscape:cx="1800"
     inkscape:cy="1800"
     inkscape:window-width="1822"
     inkscape:window-height="1051"
     inkscape:window-x="89"
     inkscape:window-y="-9"
     inkscape:window-maximized="1"
     inkscape:current-layer="g1" />
  <g
     transform="translate(0,2700)scale(.075,.075)"
     id="g1"
     style="fill:#0000ff">
    <path
       style="fill:#4772b9;fill-opacity:1"
       d="m 5445,-15388 c 18,113 113,540 170,763 511,2006 1499,3846 2902,5407 180,200 593,617 804,813 529,489 1030,883 1617,1272 770,511 1514,901 2340,1229 348,138 355,141 667,245 1123,377 2306,597 3496,650 290,13 1120,7 1371,-10 1601,-107 3046,-464 4480,-1107 240,-108 728,-353 943,-474 639,-358 1243,-766 1835,-1240 435,-348 979,-858 1357,-1270 83,-91 163,-177 177,-192 31,-34 224,-264 411,-493 118,-145 228,-292 499,-667 67,-94 72,-105 62,-128 -14,-32 -29,-53 -56,-80 -11,-11 -26,-30 -34,-43 -7,-13 -32,-42 -55,-65 -22,-23 -47,-54 -53,-68 -7,-15 -21,-29 -30,-32 -10,-2 -18,-10 -18,-16 -1,-15 -36,-56 -48,-56 -6,0 -13,-7 -16,-15 -11,-29 -50,-75 -63,-75 -7,0 -13,-8 -14,-18 0,-9 -27,-43 -60,-74 -32,-32 -65,-67 -71,-78 -7,-11 -19,-20 -26,-20 -6,0 -21,-16 -33,-35 -11,-19 -29,-37 -38,-40 -9,-3 -25,-19 -34,-35 -9,-17 -31,-41 -47,-55 -67,-56 -80,-68 -85,-79 -2,-6 -11,-14 -20,-18 -8,-5 -39,-33 -68,-63 -30,-30 -58,-55 -63,-55 -6,0 -18,-13 -29,-30 -10,-16 -28,-34 -39,-40 -12,-6 -26,-16 -31,-24 -5,-8 -19,-17 -30,-20 -11,-3 -22,-10 -25,-15 -3,-4 -12,-11 -20,-15 -16,-7 -41,-30 -114,-102 -23,-23 -51,-44 -62,-48 -11,-3 -29,-19 -39,-36 -10,-16 -26,-31 -34,-32 -9,-2 -28,-15 -43,-30 -15,-16 -33,-28 -40,-29 -7,0 -26,-16 -43,-35 -17,-19 -35,-36 -41,-37 -6,-1 -18,-9 -27,-17 -21,-19 -48,-39 -65,-48 -6,-4 -19,-15 -27,-24 -8,-10 -24,-20 -35,-23 -11,-3 -23,-11 -28,-17 -4,-7 -17,-17 -30,-21 -12,-5 -22,-15 -22,-23 0,-8 -6,-15 -13,-16 -8,-2 -21,-10 -30,-18 -32,-29 -49,-41 -72,-51 -14,-6 -27,-15 -30,-20 -3,-5 -16,-14 -30,-20 -14,-6 -27,-15 -30,-20 -3,-5 -13,-12 -24,-17 -10,-4 -27,-15 -37,-25 -21,-20 -58,-49 -71,-56 -6,-3 -22,-14 -35,-24 -13,-9 -30,-18 -38,-18 -8,-1 -27,-14 -43,-29 -15,-16 -35,-30 -45,-33 -9,-3 -22,-12 -29,-20 -6,-9 -22,-19 -35,-23 -13,-3 -32,-15 -42,-25 -11,-10 -24,-19 -30,-19 -6,0 -14,-3 -17,-8 -3,-4 -13,-12 -23,-17 -9,-6 -22,-17 -28,-25 -6,-8 -22,-17 -37,-20 -14,-3 -31,-13 -38,-22 -7,-10 -19,-18 -26,-18 -8,0 -21,-7 -28,-16 -8,-9 -23,-18 -34,-20 -11,-2 -26,-10 -33,-19 -6,-8 -21,-17 -31,-20 -11,-3 -21,-10 -23,-15 -1,-4 -11,-11 -20,-14 -10,-3 -24,-13 -31,-20 -8,-8 -25,-18 -40,-21 -14,-4 -30,-13 -36,-21 -6,-8 -22,-16 -36,-19 -14,-3 -29,-12 -33,-21 -4,-8 -26,-18 -48,-21 -22,-3 -45,-10 -50,-17 -6,-7 -19,-14 -30,-18 -11,-3 -25,-13 -32,-22 -7,-9 -23,-18 -36,-21 -13,-3 -25,-8 -27,-12 -2,-5 -16,-12 -31,-16 -14,-5 -29,-13 -32,-18 -3,-5 -17,-13 -31,-19 -14,-5 -29,-16 -33,-23 -5,-8 -22,-17 -39,-20 -17,-3 -33,-12 -37,-19 -3,-7 -21,-17 -40,-21 -19,-5 -36,-12 -38,-15 -2,-4 -22,-13 -45,-21 -22,-7 -46,-23 -53,-35 -6,-12 -27,-27 -46,-34 -18,-7 -47,-19 -64,-27 -16,-8 -39,-17 -49,-20 -11,-3 -22,-10 -25,-15 -3,-6 -21,-15 -40,-20 -19,-6 -36,-14 -38,-19 -1,-4 -24,-14 -49,-21 -26,-8 -51,-20 -57,-27 -7,-7 -18,-13 -26,-13 -7,0 -16,-6 -19,-12 -4,-7 -22,-17 -41,-22 -19,-5 -37,-13 -40,-17 -3,-5 -21,-14 -40,-20 -19,-6 -37,-15 -40,-20 -3,-5 -19,-13 -34,-17 -15,-4 -37,-13 -47,-20 -11,-7 -30,-13 -43,-14 -13,-2 -26,-8 -30,-13 -4,-6 -26,-16 -48,-23 -23,-7 -44,-16 -45,-20 -2,-4 -19,-13 -37,-20 -17,-6 -44,-18 -60,-26 -15,-8 -38,-18 -52,-21 -14,-3 -30,-12 -37,-20 -10,-12 -59,-26 -91,-25 -6,0 -16,-7 -22,-15 -5,-8 -17,-15 -27,-15 -10,0 -23,-6 -29,-14 -7,-8 -25,-17 -42,-21 -17,-3 -32,-10 -34,-15 -2,-5 -26,-14 -53,-20 -27,-6 -55,-16 -61,-24 -6,-7 -24,-15 -41,-19 -17,-3 -32,-11 -34,-16 -2,-6 -26,-15 -53,-20 -27,-5 -51,-14 -55,-19 -3,-6 -18,-14 -33,-17 -15,-4 -28,-10 -30,-13 -2,-4 -16,-10 -33,-14 -69,-16 -81,-20 -93,-34 -7,-8 -17,-14 -23,-12 -5,2 -50,56 -99,121 -317,414 -384,492 -692,797 -350,346 -661,595 -1075,859 -201,128 -339,204 -598,331 -479,234 -922,390 -1430,503 -496,110 -936,154 -1460,149 -411,-5 -650,-26 -1025,-90 -637,-109 -1208,-297 -1793,-592 -1146,-577 -2068,-1454 -2712,-2580 -85,-147 -271,-525 -332,-675 l -48,-115 H 8742 5438 Z"
       id="path3" />
    <path
       style="fill:#ecf0f7;fill-opacity:1"
       d="m 29507,-21753 c -4,3 -7,17 -7,29 0,13 -4,25 -8,28 -5,3 -12,90 -15,193 -4,103 -11,191 -17,197 -5,5 -10,31 -10,57 0,26 -4,51 -10,54 -6,3 -10,26 -10,50 0,24 -4,47 -10,50 -6,3 -10,21 -10,40 0,19 -4,37 -10,40 -6,3 -10,20 -10,36 0,17 -6,32 -15,35 -8,4 -15,19 -15,34 0,16 -4,32 -10,35 -6,3 -10,17 -10,30 0,13 -5,27 -10,30 -5,3 -10,17 -10,31 0,14 -7,27 -15,30 -8,4 -15,12 -15,20 0,8 -5,23 -10,34 -5,11 -14,29 -20,40 -6,11 -10,27 -10,35 0,9 -7,18 -15,21 -8,4 -15,12 -15,20 0,8 -4,23 -10,34 -6,11 -14,29 -20,40 -6,11 -10,26 -10,34 0,8 -6,19 -13,23 -7,4 -25,34 -40,65 -15,31 -31,58 -35,60 -4,2 -20,29 -36,60 -15,32 -31,58 -36,58 -4,0 -15,16 -24,35 -9,19 -21,35 -25,35 -5,0 -16,16 -25,35 -9,19 -30,49 -45,66 -16,17 -35,43 -42,57 -13,26 -39,57 -104,127 -17,17 -43,49 -60,70 -29,38 -54,66 -145,168 -52,58 -56,62 -139,140 -33,32 -61,62 -61,67 0,4 -4,10 -9,12 -9,3 -137,119 -243,220 -33,32 -80,72 -105,90 -25,18 -77,59 -116,92 -40,32 -88,66 -107,76 -19,10 -46,30 -59,44 -14,14 -29,26 -35,26 -5,0 -21,11 -35,23 -34,31 -239,177 -249,177 -4,0 -19,11 -34,25 -15,14 -29,25 -32,25 -5,0 -105,64 -121,78 -5,4 -17,11 -25,15 -8,4 -49,29 -90,57 -41,27 -88,56 -105,65 -17,8 -43,24 -60,35 -17,11 -41,26 -55,33 -14,6 -45,25 -69,41 -25,16 -58,35 -75,43 -17,7 -44,22 -61,33 -17,11 -48,29 -70,40 -22,11 -58,31 -80,44 -22,13 -60,34 -85,45 -25,11 -52,25 -60,31 -8,6 -33,19 -55,31 -22,11 -56,28 -75,39 -19,10 -43,19 -54,20 -10,0 -42,13 -70,29 -28,16 -71,37 -96,47 -25,9 -52,23 -60,29 -8,7 -56,30 -105,51 -49,20 -97,43 -105,50 -17,14 -674,294 -690,294 -6,0 -59,20 -118,45 -58,25 -112,45 -118,45 -7,0 -49,16 -94,35 -45,19 -88,35 -95,35 -7,0 -43,14 -80,30 -37,16 -72,30 -78,30 -6,0 -43,12 -82,26 -127,47 -169,61 -240,83 -39,12 -87,28 -107,36 -21,8 -64,22 -96,31 -31,9 -73,22 -92,29 -19,7 -55,18 -80,25 -25,7 -56,17 -70,22 -14,5 -45,14 -70,18 -25,5 -62,13 -82,19 -21,6 -54,15 -73,21 -19,6 -51,14 -70,20 -19,6 -51,14 -70,20 -19,6 -51,14 -70,20 -19,6 -51,14 -70,20 -19,6 -51,14 -70,20 -93,27 -114,32 -170,46 -33,8 -76,19 -95,25 -90,25 -273,73 -345,89 -44,10 -118,28 -165,40 -220,55 -679,155 -955,209 -88,17 -206,40 -263,51 -56,11 -114,22 -130,24 -15,3 -66,12 -114,20 -338,61 -923,152 -1193,186 -44,6 -150,19 -235,30 -85,11 -172,22 -192,25 -114,16 -720,76 -850,85 -84,6 -250,17 -368,25 -880,63 -1622,96 -2135,95 -210,0 -270,7 -237,28 7,5 205,12 440,15 235,4 526,11 647,17 367,16 810,41 995,55 96,7 260,18 365,24 292,17 419,28 773,66 432,47 390,42 560,64 81,11 232,31 337,44 105,13 217,29 250,36 33,6 106,18 163,26 257,37 410,62 677,111 387,70 393,72 577,109 313,63 755,161 883,195 41,11 117,29 167,40 80,18 200,48 353,90 22,6 66,18 97,26 32,8 74,18 93,24 19,6 51,15 70,20 19,6 51,15 70,20 19,6 51,15 70,20 19,6 51,15 70,20 19,5 51,14 70,20 19,6 50,14 67,20 18,5 61,16 96,25 129,31 214,56 297,86 33,11 76,25 95,29 19,5 54,15 78,24 23,9 71,25 107,36 36,11 94,31 130,45 80,31 139,51 187,65 21,5 63,21 94,35 31,14 62,25 69,25 8,0 50,16 95,35 45,19 87,35 93,35 12,0 265,102 299,121 10,5 23,9 30,9 18,0 555,227 576,244 9,8 62,33 117,56 55,23 107,48 115,54 8,7 35,21 60,30 25,10 68,31 96,47 28,16 57,29 65,29 14,0 126,55 277,138 53,28 110,59 127,68 17,8 46,25 66,37 20,12 51,30 70,40 19,9 50,27 71,40 20,12 52,30 72,39 20,10 48,27 64,38 15,11 73,47 130,80 101,59 130,78 144,92 5,5 28,20 53,36 25,15 65,41 88,59 23,17 47,32 53,32 6,1 21,12 34,26 13,14 29,25 35,25 6,0 22,11 35,25 13,14 29,25 35,25 6,0 22,11 35,25 13,14 29,25 35,25 7,0 20,10 31,21 19,22 61,52 140,101 23,15 88,65 143,112 56,47 148,126 205,175 58,49 128,112 157,140 28,28 56,51 60,51 5,0 9,4 9,8 0,4 53,62 118,128 64,67 136,143 158,170 23,27 51,59 63,72 11,12 31,37 43,54 13,18 31,41 40,50 35,35 88,100 105,129 10,16 21,29 25,29 4,0 14,15 23,34 9,19 26,45 38,58 12,13 29,36 37,53 8,16 23,37 32,46 9,10 24,35 34,56 10,21 22,41 26,44 13,8 58,100 58,116 0,7 4,13 10,13 5,0 16,17 25,38 9,20 21,45 26,54 5,10 9,24 9,32 0,8 7,17 15,20 8,3 15,12 15,21 0,8 4,24 10,35 6,11 15,29 20,40 5,11 10,29 10,39 0,11 7,22 15,25 8,3 15,16 15,30 0,14 5,28 10,31 5,3 10,17 10,30 0,13 4,27 10,30 6,3 10,17 10,30 0,13 7,26 15,29 9,3 15,18 15,40 0,19 4,38 10,41 6,3 10,21 10,40 0,19 4,37 10,40 6,3 10,26 10,50 0,24 4,47 10,50 6,3 10,27 10,53 0,26 5,52 10,58 6,7 14,101 18,225 7,203 8,214 27,214 26,0 33,-30 34,-150 3,-326 71,-837 160,-1200 106,-437 276,-896 480,-1297 44,-87 89,-170 99,-185 11,-16 48,-77 83,-137 80,-138 236,-376 331,-504 102,-137 249,-321 263,-330 6,-4 67,-70 136,-146 153,-171 337,-350 534,-519 156,-135 383,-312 413,-324 9,-4 83,-51 164,-105 600,-399 1319,-709 1968,-848 347,-74 891,-140 1157,-140 96,0 103,-1 103,-20 0,-19 -7,-20 -103,-20 -200,0 -596,-40 -844,-86 -73,-13 -144,-24 -159,-24 -66,0 -396,-85 -659,-170 -289,-93 -520,-188 -803,-328 -241,-120 -408,-216 -637,-367 -96,-63 -177,-115 -180,-115 -15,0 -293,-216 -431,-335 -143,-124 -353,-325 -462,-445 -231,-251 -270,-295 -350,-398 -417,-539 -720,-1095 -947,-1737 -186,-526 -314,-1243 -315,-1757 0,-100 -3,-128 -13,-128 -8,0 -17,3 -20,7 z"
       id="path2" />
    <path
       style="fill:#4772b9;fill-opacity:1"
       d="m 17490,-30593 c -906,47 -1557,134 -2326,308 -2956,672 -5596,2394 -7414,4836 -635,853 -1139,1736 -1545,2704 -492,1176 -809,2440 -929,3707 -46,482 -50,595 -48,1220 2,630 7,775 43,1176 24,264 35,361 41,368 3,2 1458,3 3234,2 l 3229,-3 -22,-97 c -146,-627 -195,-1414 -128,-2063 152,-1472 778,-2809 1804,-3857 512,-523 1073,-932 1726,-1257 766,-383 1522,-590 2415,-662 184,-15 712,-15 895,0 729,58 1374,210 2020,476 206,84 607,285 800,401 509,305 927,633 1328,1044 477,490 841,998 1149,1608 379,747 599,1544 666,2410 l 7,97 27,-3 c 16,-1 30,-6 33,-11 3,-6 23,-15 43,-22 20,-6 40,-16 44,-20 5,-5 24,-14 43,-21 19,-7 35,-16 35,-20 0,-4 6,-8 14,-8 8,0 21,-6 28,-13 7,-8 35,-20 61,-27 26,-8 47,-17 47,-22 0,-4 18,-13 40,-19 22,-7 40,-16 40,-20 0,-4 10,-10 22,-14 13,-4 44,-18 70,-31 27,-13 53,-24 59,-24 5,0 24,-13 42,-30 17,-16 44,-32 59,-35 16,-4 28,-10 28,-15 0,-5 17,-14 37,-21 21,-7 44,-18 51,-26 7,-7 21,-13 31,-13 10,0 30,-11 45,-25 15,-14 34,-25 42,-25 7,0 14,-4 14,-9 0,-5 14,-12 30,-16 17,-4 30,-10 30,-15 0,-5 16,-14 35,-20 19,-6 35,-16 35,-21 0,-6 14,-15 30,-20 16,-6 30,-15 30,-20 0,-4 11,-9 24,-9 36,-1 86,-20 110,-42 33,-30 41,-35 64,-42 12,-3 29,-15 38,-26 8,-11 24,-20 35,-20 10,0 19,-4 19,-9 0,-5 16,-15 36,-21 20,-7 45,-21 55,-31 25,-25 45,-39 57,-39 5,0 21,-11 36,-25 15,-14 34,-25 41,-25 13,0 38,-16 70,-48 8,-6 18,-12 22,-12 5,0 19,-9 31,-20 12,-11 37,-25 54,-32 18,-7 40,-19 50,-28 51,-46 82,-70 94,-70 7,0 25,-11 41,-24 15,-13 36,-26 45,-29 10,-3 18,-10 18,-15 0,-5 15,-16 32,-23 18,-7 48,-28 67,-46 19,-18 40,-33 48,-33 7,0 13,-4 13,-8 0,-5 12,-15 27,-23 36,-19 58,-34 77,-54 8,-8 19,-15 25,-15 6,0 11,-6 11,-14 0,-8 14,-19 30,-25 16,-5 30,-14 30,-20 0,-6 11,-13 25,-17 14,-4 30,-15 36,-25 5,-11 19,-19 29,-19 11,0 20,-7 20,-15 0,-8 4,-15 8,-15 5,0 17,-8 28,-18 10,-10 25,-21 32,-25 17,-10 84,-63 125,-99 17,-16 36,-28 42,-28 6,0 16,-9 23,-20 6,-11 16,-20 22,-20 5,0 31,-21 57,-48 26,-26 58,-52 70,-57 12,-5 32,-25 44,-43 12,-17 28,-32 35,-32 8,0 14,-4 14,-9 0,-5 13,-14 30,-20 17,-5 30,-14 30,-19 0,-5 10,-14 23,-21 12,-6 30,-25 40,-41 9,-17 22,-30 28,-30 11,0 32,-17 109,-92 15,-16 31,-28 34,-28 12,0 126,-121 142,-150 9,-16 24,-32 34,-35 10,-3 28,-20 40,-38 12,-18 28,-33 34,-35 7,-1 26,-18 42,-38 16,-20 48,-56 71,-80 24,-24 43,-50 43,-59 0,-8 6,-15 12,-15 15,0 68,-63 68,-79 0,-6 4,-11 8,-11 11,0 92,-77 92,-88 0,-5 11,-19 25,-32 14,-13 25,-28 25,-35 0,-6 11,-17 24,-25 14,-7 30,-26 37,-42 7,-16 26,-44 44,-62 17,-18 37,-47 44,-64 7,-18 19,-32 26,-32 7,0 17,-12 23,-28 10,-26 43,-69 104,-137 15,-17 28,-35 28,-41 0,-7 9,-15 20,-19 11,-4 20,-15 20,-25 0,-22 40,-97 58,-109 14,-9 42,-57 42,-73 0,-5 6,-16 12,-24 29,-30 39,-45 48,-69 13,-31 30,-57 48,-68 6,-4 12,-15 12,-23 0,-9 7,-22 15,-30 8,-9 15,-24 15,-34 0,-10 4,-22 10,-25 6,-3 10,-15 10,-25 0,-10 9,-22 20,-25 11,-3 20,-15 20,-26 0,-10 4,-28 10,-39 6,-11 14,-29 20,-40 5,-11 10,-27 10,-35 0,-8 7,-15 15,-15 8,0 16,-10 19,-22 2,-13 9,-36 15,-51 6,-16 11,-36 11,-46 0,-10 7,-21 15,-25 9,-4 15,-18 15,-35 0,-18 6,-32 15,-35 8,-2 15,-16 15,-29 0,-14 6,-30 14,-36 7,-6 16,-24 19,-39 15,-71 21,-88 38,-99 9,-7 19,-27 22,-45 3,-18 10,-52 16,-76 6,-23 14,-62 17,-87 4,-31 11,-45 22,-47 17,-3 23,-25 38,-143 4,-27 13,-55 20,-63 9,-8 14,-35 14,-72 0,-32 4,-62 10,-65 6,-3 10,-38 10,-76 0,-52 4,-71 15,-75 10,-4 15,-21 15,-53 0,-40 -18,-80 -130,-294 -526,-1006 -1132,-1880 -1877,-2709 -280,-312 -763,-786 -1094,-1076 -812,-708 -1750,-1334 -2724,-1817 -1596,-791 -3276,-1226 -5084,-1315 -179,-9 -983,-11 -1131,-3 z"
       id="path1" />
  </g>
</svg>
