<?xml version="1.0" encoding="UTF-8" standalone="no"?>
<svg
   version="1.0"
   width="2550pt"
   height="2550pt"
   viewBox="0 0 2550 2550"
   preserveAspectRatio="xMidYMid meet"
   id="svg1"
   sodipodi:docname="projekt_laser_logo_v3_blau.svg"
   inkscape:version="1.3.2 (091e20e, 2023-11-25, custom)"
   xmlns:inkscape="http://www.inkscape.org/namespaces/inkscape"
   xmlns:sodipodi="http://sodipodi.sourceforge.net/DTD/sodipodi-0.dtd"
   xmlns="http://www.w3.org/2000/svg"
   xmlns:svg="http://www.w3.org/2000/svg">
  <defs
     id="defs1" />
  <sodipodi:namedview
     id="namedview1"
     pagecolor="#ffffff"
     bordercolor="#111111"
     borderopacity="1"
     inkscape:showpageshadow="0"
     inkscape:pageopacity="0"
     inkscape:pagecheckerboard="1"
     inkscape:deskcolor="#d1d1d1"
     inkscape:document-units="pt"
     inkscape:zoom="0.19676471"
     inkscape:cx="1700"
     inkscape:cy="1700"
     inkscape:window-width="1822"
     inkscape:window-height="1051"
     inkscape:window-x="89"
     inkscape:window-y="-9"
     inkscape:window-maximized="1"
     inkscape:current-layer="svg1" />
  <path
     style="stroke-width:0.075;fill:#4772b9;fill-opacity:1"
     d="m 183.375,1470.9 c 1.35,8.475 8.475,40.5 12.75,57.225 38.325,150.45 112.425,288.45 217.65,405.525 13.5,15 44.475,46.275 60.3,60.975 39.675,36.675 77.25,66.225 121.275,95.4 57.75,38.325 113.55,67.575 175.5,92.175 26.1,10.35 26.625,10.575 50.025,18.375 84.225,28.275 172.95,44.775 262.2,48.75 21.75,0.975 84,0.525 102.825,-0.75 120.075,-8.025 228.45,-34.8 336,-83.025 18,-8.1 54.6,-26.475 70.725,-35.55 47.925,-26.85 93.225,-57.45 137.625,-93 32.625,-26.1 73.425,-64.35 101.775,-95.25 6.225,-6.825 12.225,-13.275 13.275,-14.4 2.325,-2.55 16.8,-19.8 30.825,-36.975 8.85,-10.875 17.1,-21.9 37.425,-50.025 5.025,-7.05 5.4,-7.875 4.65,-9.6 -1.05,-2.4 -2.175,-3.975 -4.2,-6 -0.825,-0.825 -1.95,-2.25 -2.55,-3.225 -0.525,-0.975 -2.4,-3.15 -4.125,-4.875 -1.65,-1.725 -3.525,-4.05 -3.975,-5.1 -0.525,-1.125 -1.575,-2.175 -2.25,-2.4 -0.75,-0.15 -1.35,-0.75 -1.35,-1.2 -0.075,-1.125 -2.7,-4.2 -3.6,-4.2 -0.45,0 -0.975,-0.525 -1.2,-1.125 -0.825,-2.175 -3.75,-5.625 -4.725,-5.625 -0.525,0 -0.975,-0.6 -1.05,-1.35 0,-0.675 -2.025,-3.225 -4.5,-5.55 -2.4,-2.4 -4.875,-5.025 -5.325,-5.85 -0.525,-0.825 -1.425,-1.5 -1.95,-1.5 -0.45,0 -1.575,-1.2 -2.475,-2.625 -0.825,-1.425 -2.175,-2.775 -2.85,-3 -0.675,-0.225 -1.875,-1.425 -2.55,-2.625 -0.675,-1.275 -2.325,-3.075 -3.525,-4.125 -5.025,-4.2 -6,-5.1 -6.375,-5.925 -0.15,-0.45 -0.825,-1.05 -1.5,-1.35 -0.6,-0.375 -2.925,-2.475 -5.1,-4.725 -2.25,-2.25 -4.35,-4.125 -4.725,-4.125 -0.45,0 -1.425,-0.975 -2.175,-2.25 -0.75,-1.2 -2.1,-2.55 -2.925,-3 -0.9,-0.45 -1.95,-1.2 -2.325,-1.8 -0.375,-0.6 -1.425,-1.275 -2.25,-1.5 -0.825,-0.225 -1.65,-0.75 -1.875,-1.125 -0.225,-0.3 -0.9,-0.825 -1.5,-1.125 -1.2,-0.525 -3.075,-2.25 -8.55,-7.65 -1.725,-1.725 -3.825,-3.3 -4.65,-3.6 -0.825,-0.225 -2.175,-1.425 -2.925,-2.7 -0.75,-1.2 -1.95,-2.325 -2.55,-2.4 -0.675,-0.15 -2.1,-1.125 -3.225,-2.25 -1.125,-1.2 -2.475,-2.1 -3,-2.175 -0.525,0 -1.95,-1.2 -3.225,-2.625 -1.275,-1.425 -2.625,-2.7 -3.075,-2.775 -0.45,-0.075 -1.35,-0.675 -2.025,-1.275 -1.575,-1.425 -3.6,-2.925 -4.875,-3.6 -0.45,-0.3 -1.425,-1.125 -2.025,-1.8 -0.6,-0.75 -1.8,-1.5 -2.625,-1.725 -0.825,-0.225 -1.725,-0.825 -2.1,-1.275 -0.3,-0.525 -1.275,-1.275 -2.25,-1.575 -0.9,-0.375 -1.65,-1.125 -1.65,-1.725 0,-0.6 -0.45,-1.125 -0.975,-1.2 -0.6,-0.15 -1.575,-0.75 -2.25,-1.35 -2.4,-2.175 -3.675,-3.075 -5.4,-3.825 -1.05,-0.45 -2.025,-1.125 -2.25,-1.5 -0.225,-0.375 -1.2,-1.05 -2.25,-1.5 -1.05,-0.45 -2.025,-1.125 -2.25,-1.5 -0.225,-0.375 -0.975,-0.9 -1.8,-1.275 -0.75,-0.3 -2.025,-1.125 -2.775,-1.875 -1.575,-1.5 -4.35,-3.675 -5.325,-4.2 -0.45,-0.225 -1.65,-1.05 -2.625,-1.8 -0.975,-0.675 -2.25,-1.35 -2.85,-1.35 -0.6,-0.075 -2.025,-1.05 -3.225,-2.175 -1.125,-1.2 -2.625,-2.25 -3.375,-2.475 -0.675,-0.225 -1.65,-0.9 -2.175,-1.5 -0.45,-0.675 -1.65,-1.425 -2.625,-1.725 -0.975,-0.225 -2.4,-1.125 -3.15,-1.875 -0.825,-0.75 -1.8,-1.425 -2.25,-1.425 -0.45,0 -1.05,-0.225 -1.275,-0.6 -0.225,-0.3 -0.975,-0.9 -1.725,-1.275 -0.675,-0.45 -1.65,-1.275 -2.1,-1.875 -0.45,-0.6 -1.65,-1.275 -2.775,-1.5 -1.05,-0.225 -2.325,-0.975 -2.85,-1.65 -0.525,-0.75 -1.425,-1.35 -1.95,-1.35 -0.6,0 -1.575,-0.525 -2.1,-1.2 -0.6,-0.675 -1.725,-1.35 -2.55,-1.5 -0.825,-0.15 -1.95,-0.75 -2.475,-1.425 -0.45,-0.6 -1.575,-1.275 -2.325,-1.5 -0.825,-0.225 -1.575,-0.75 -1.725,-1.125 -0.075,-0.3 -0.825,-0.825 -1.5,-1.05 -0.75,-0.225 -1.8,-0.975 -2.325,-1.5 -0.6,-0.6 -1.875,-1.35 -3,-1.575 -1.05,-0.3 -2.25,-0.975 -2.7,-1.575 -0.45,-0.6 -1.65,-1.2 -2.7,-1.425 -1.05,-0.225 -2.175,-0.9 -2.475,-1.575 -0.3,-0.6 -1.95,-1.35 -3.6,-1.575 -1.65,-0.225 -3.375,-0.75 -3.75,-1.275 -0.45,-0.525 -1.425,-1.05 -2.25,-1.35 -0.825,-0.225 -1.875,-0.975 -2.4,-1.65 -0.525,-0.675 -1.725,-1.35 -2.7,-1.575 -0.975,-0.225 -1.875,-0.6 -2.025,-0.9 -0.15,-0.375 -1.2,-0.9 -2.325,-1.2 -1.05,-0.375 -2.175,-0.975 -2.4,-1.35 -0.225,-0.375 -1.275,-0.975 -2.325,-1.425 -1.05,-0.45 -2.175,-1.2 -2.475,-1.725 -0.375,-0.6 -1.65,-1.275 -2.925,-1.5 -1.275,-0.225 -2.475,-0.9 -2.775,-1.425 -0.225,-0.525 -1.575,-1.275 -3,-1.575 -1.425,-0.375 -2.7,-0.9 -2.85,-1.125 -0.15,-0.3 -1.65,-0.975 -3.375,-1.575 -1.65,-0.525 -3.45,-1.725 -3.975,-2.625 -0.45,-0.9 -2.025,-2.025 -3.45,-2.55 -1.35,-0.525 -3.525,-1.425 -4.8,-2.025 -1.2,-0.6 -2.925,-1.275 -3.675,-1.5 -0.825,-0.225 -1.65,-0.75 -1.875,-1.125 -0.225,-0.45 -1.575,-1.125 -3,-1.5 -1.425,-0.45 -2.7,-1.05 -2.85,-1.425 -0.075,-0.3 -1.8,-1.05 -3.675,-1.575 -1.95,-0.6 -3.825,-1.5 -4.275,-2.025 -0.525,-0.525 -1.35,-0.975 -1.95,-0.975 -0.525,0 -1.2,-0.45 -1.425,-0.9 -0.3,-0.525 -1.65,-1.275 -3.075,-1.65 -1.425,-0.375 -2.775,-0.975 -3,-1.275 -0.225,-0.375 -1.575,-1.05 -3,-1.5 -1.425,-0.45 -2.775,-1.125 -3,-1.5 -0.225,-0.375 -1.425,-0.975 -2.55,-1.275 -1.125,-0.3 -2.775,-0.975 -3.525,-1.5 -0.825,-0.525 -2.25,-0.975 -3.225,-1.05 -0.975,-0.15 -1.95,-0.6 -2.25,-0.975 -0.3,-0.45 -1.95,-1.2 -3.6,-1.725 -1.725,-0.525 -3.3,-1.2 -3.375,-1.5 -0.15,-0.3 -1.425,-0.975 -2.775,-1.5 -1.275,-0.45 -3.3,-1.35 -4.5,-1.95 -1.125,-0.6 -2.85,-1.35 -3.9,-1.575 -1.05,-0.225 -2.25,-0.9 -2.775,-1.5 -0.75,-0.9 -4.425,-1.95 -6.825,-1.875 -0.45,0 -1.2,-0.525 -1.65,-1.125 -0.375,-0.6 -1.275,-1.125 -2.025,-1.125 -0.75,0 -1.725,-0.45 -2.175,-1.05 -0.525,-0.6 -1.875,-1.275 -3.15,-1.575 -1.275,-0.225 -2.4,-0.75 -2.55,-1.125 -0.15,-0.375 -1.95,-1.05 -3.975,-1.5 -2.025,-0.45 -4.125,-1.2 -4.575,-1.8 -0.45,-0.525 -1.8,-1.125 -3.075,-1.425 -1.275,-0.225 -2.4,-0.825 -2.55,-1.2 -0.15,-0.45 -1.95,-1.125 -3.975,-1.5 -2.025,-0.375 -3.825,-1.05 -4.125,-1.425 -0.225,-0.45 -1.35,-1.05 -2.475,-1.275 -1.125,-0.3 -2.1,-0.75 -2.25,-0.975 -0.15,-0.3 -1.2,-0.75 -2.475,-1.05 -5.175,-1.2 -6.075,-1.5 -6.975,-2.55 -0.525,-0.6 -1.275,-1.05 -1.725,-0.9 -0.375,0.15 -3.75,4.2 -7.425,9.075 -23.775,31.125 -28.8,36.9 -51.9,59.775 -26.25,25.95 -49.575,44.625 -80.625,64.425 -15.075,9.6 -25.425,15.3 -44.85,24.825 -35.925,17.55 -69.15,29.25 -107.25,37.725 -37.2,8.25 -70.2,11.55 -109.5,11.175 -30.825,-0.375 -48.75,-1.95 -76.875,-6.75 -47.775,-8.175 -90.6,-22.275 -134.475,-44.4 -85.95,-43.275 -155.1,-109.05 -203.4,-193.5 -6.375,-11.025 -20.325,-39.375 -24.9,-50.625 l -3.6,-8.625 H 430.65 182.85 Z"
     id="path3" />
  <path
     style="stroke-width:0.075;fill:#ecf0f7;fill-opacity:1"
     d="m 1988.025,993.525 c -0.3,0.225 -0.525,1.275 -0.525,2.175 0,0.975 -0.3,1.875 -0.6,2.1 -0.375,0.225 -0.9,6.75 -1.125,14.475 -0.3,7.725 -0.825,14.325 -1.275,14.775 -0.375,0.375 -0.75,2.325 -0.75,4.275 0,1.95 -0.3,3.825 -0.75,4.05 -0.45,0.225 -0.75,1.95 -0.75,3.75 0,1.8 -0.3,3.525 -0.75,3.75 -0.45,0.225 -0.75,1.575 -0.75,3 0,1.425 -0.3,2.775 -0.75,3 -0.45,0.225 -0.75,1.5 -0.75,2.7 0,1.275 -0.45,2.4 -1.125,2.625 -0.6,0.3 -1.125,1.425 -1.125,2.55 0,1.2 -0.3,2.4 -0.75,2.625 -0.45,0.225 -0.75,1.275 -0.75,2.25 0,0.975 -0.3,2.025 -0.75,2.25 -0.45,0.225 -0.75,1.275 -0.75,2.325 0,1.05 -0.525,2.025 -1.125,2.25 -0.6,0.3 -1.125,0.9 -1.125,1.5 0,0.6 -0.3,1.725 -0.75,2.55 -0.45,0.825 -1.05,2.175 -1.5,3 -0.45,0.825 -0.75,2.025 -0.75,2.625 0,0.675 -0.525,1.35 -1.125,1.575 -0.6,0.3 -1.125,0.9 -1.125,1.5 0,0.6 -0.3,1.725 -0.75,2.55 -0.45,0.825 -1.05,2.175 -1.5,3 -0.45,0.825 -0.75,1.95 -0.75,2.55 0,0.6 -0.45,1.425 -0.975,1.725 -0.525,0.3 -1.875,2.55 -3,4.875 -1.125,2.325 -2.325,4.35 -2.625,4.5 -0.3,0.15 -1.5,2.175 -2.7,4.5 -1.125,2.4 -2.325,4.35 -2.7,4.35 -0.3,0 -1.125,1.2 -1.8,2.625 -0.675,1.425 -1.575,2.625 -1.875,2.625 -0.375,0 -1.2,1.2 -1.875,2.625 -0.675,1.425 -2.25,3.675 -3.375,4.95 -1.2,1.275 -2.625,3.225 -3.15,4.275 -0.975,1.95 -2.925,4.275 -7.8,9.525 -1.275,1.275 -3.225,3.675 -4.5,5.25 -2.175,2.85 -4.05,4.95 -10.875,12.6 -3.9,4.35 -4.2,4.65 -10.425,10.5 -2.475,2.4 -4.575,4.65 -4.575,5.025 0,0.3 -0.3,0.75 -0.675,0.9 -0.675,0.225 -10.275,8.925 -18.225,16.5 -2.475,2.4 -6,5.4 -7.875,6.75 -1.875,1.35 -5.775,4.425 -8.7,6.9 -3,2.4 -6.6,4.95 -8.025,5.7 -1.425,0.75 -3.45,2.25 -4.425,3.3 -1.05,1.05 -2.175,1.95 -2.625,1.95 -0.375,0 -1.575,0.825 -2.625,1.725 -2.55,2.325 -17.925,13.275 -18.675,13.275 -0.3,0 -1.425,0.825 -2.55,1.875 -1.125,1.05 -2.175,1.875 -2.4,1.875 -0.375,0 -7.875,4.8 -9.075,5.85 -0.375,0.3 -1.275,0.825 -1.875,1.125 -0.6,0.3 -3.675,2.175 -6.75,4.275 -3.075,2.025 -6.6,4.2 -7.875,4.875 -1.275,0.6 -3.225,1.8 -4.5,2.625 -1.275,0.825 -3.075,1.95 -4.125,2.475 -1.05,0.45 -3.375,1.875 -5.175,3.075 -1.875,1.2 -4.35,2.625 -5.625,3.225 -1.275,0.525 -3.3,1.65 -4.575,2.475 -1.275,0.825 -3.6,2.175 -5.25,3 -1.65,0.825 -4.35,2.325 -6,3.3 -1.65,0.975 -4.5,2.55 -6.375,3.375 -1.875,0.825 -3.9,1.875 -4.5,2.325 -0.6,0.45 -2.475,1.425 -4.125,2.325 -1.65,0.825 -4.2,2.1 -5.625,2.925 -1.425,0.75 -3.225,1.425 -4.05,1.5 -0.75,0 -3.15,0.975 -5.25,2.175 -2.1,1.2 -5.325,2.775 -7.2,3.525 -1.875,0.675 -3.9,1.725 -4.5,2.175 -0.6,0.525 -4.2,2.25 -7.875,3.825 -3.675,1.5 -7.275,3.225 -7.875,3.75 -1.275,1.05 -50.55,22.05 -51.75,22.05 -0.45,0 -4.425,1.5 -8.85,3.375 -4.35,1.875 -8.4,3.375 -8.85,3.375 -0.525,0 -3.675,1.2 -7.05,2.625 -3.375,1.425 -6.6,2.625 -7.125,2.625 -0.525,0 -3.225,1.05 -6,2.25 -2.775,1.2 -5.4,2.25 -5.85,2.25 -0.45,0 -3.225,0.9 -6.15,1.95 -9.525,3.525 -12.675,4.575 -18,6.225 -2.925,0.9 -6.525,2.1 -8.025,2.7 -1.575,0.6 -4.8,1.65 -7.2,2.325 -2.325,0.675 -5.475,1.65 -6.9,2.175 -1.425,0.525 -4.125,1.35 -6,1.875 -1.875,0.525 -4.2,1.275 -5.25,1.65 -1.05,0.375 -3.375,1.05 -5.25,1.35 -1.875,0.375 -4.65,0.975 -6.15,1.425 -1.575,0.45 -4.05,1.125 -5.475,1.575 -1.425,0.45 -3.825,1.125 -5.25,1.5 -1.425,0.375 -3.825,1.05 -5.25,1.5 -1.425,0.45 -3.825,1.125 -5.25,1.5 -1.425,0.375 -3.825,1.05 -5.25,1.5 -1.425,0.45 -3.825,1.05 -5.25,1.5 -6.975,2.025 -8.55,2.4 -12.75,3.45 -2.475,0.6 -5.7,1.425 -7.125,1.875 -6.75,1.875 -20.475,5.475 -25.875,6.675 -3.3,0.75 -8.85,2.1 -12.375,3 -16.5,4.125 -50.925,11.625 -71.625,15.675 -6.6,1.275 -15.45,3 -19.725,3.825 -4.2,0.825 -8.55,1.65 -9.75,1.8 -1.125,0.225 -4.95,0.9 -8.55,1.5 -25.35,4.575 -69.225,11.4 -89.475,13.95 -3.3,0.45 -11.25,1.425 -17.625,2.25 -6.375,0.825 -12.9,1.65 -14.4,1.875 -8.55,1.2 -54,5.7 -63.75,6.375 -6.3,0.45 -18.75,1.275 -27.6,1.875 -66,4.725 -121.65,7.2 -160.125,7.125 -15.75,0 -20.25,0.525 -17.775,2.1 0.525,0.375 15.375,0.9 33,1.125 17.625,0.3 39.45,0.825 48.525,1.275 27.525,1.2 60.75,3.075 74.625,4.125 7.2,0.525 19.5,1.35 27.375,1.8 21.9,1.275 31.425,2.1 57.975,4.95 32.4,3.525 29.25,3.15 42,4.8 6.075,0.825 17.4,2.325 25.275,3.3 7.875,0.975 16.275,2.175 18.75,2.7 2.475,0.45 7.95,1.35 12.225,1.95 19.275,2.775 30.75,4.65 50.775,8.325 29.025,5.25 29.475,5.4 43.275,8.175 23.475,4.725 56.625,12.075 66.225,14.625 3.075,0.825 8.775,2.175 12.525,3 6,1.35 15,3.6 26.475,6.75 1.65,0.45 4.95,1.35 7.275,1.95 2.4,0.6 5.55,1.35 6.975,1.8 1.425,0.45 3.825,1.125 5.25,1.5 1.425,0.45 3.825,1.125 5.25,1.5 1.425,0.45 3.825,1.125 5.25,1.5 1.425,0.45 3.825,1.125 5.25,1.5 1.425,0.375 3.825,1.05 5.25,1.5 1.425,0.45 3.75,1.05 5.025,1.5 1.35,0.375 4.575,1.2 7.2,1.875 9.675,2.325 16.05,4.2 22.275,6.45 2.475,0.825 5.7,1.875 7.125,2.175 1.425,0.375 4.05,1.125 5.85,1.8 1.725,0.675 5.325,1.875 8.025,2.7 2.7,0.825 7.05,2.325 9.75,3.375 6,2.325 10.425,3.825 14.025,4.875 1.575,0.375 4.725,1.575 7.05,2.625 2.325,1.05 4.65,1.875 5.175,1.875 0.6,0 3.75,1.2 7.125,2.625 3.375,1.425 6.525,2.625 6.975,2.625 0.9,0 19.875,7.65 22.425,9.075 0.75,0.375 1.725,0.675 2.25,0.675 1.35,0 41.625,17.025 43.2,18.3 0.675,0.6 4.65,2.475 8.775,4.2 4.125,1.725 8.025,3.6 8.625,4.05 0.6,0.525 2.625,1.575 4.5,2.25 1.875,0.75 5.1,2.325 7.2,3.525 2.1,1.2 4.275,2.175 4.875,2.175 1.05,0 9.45,4.125 20.775,10.35 3.975,2.1 8.25,4.425 9.525,5.1 1.275,0.6 3.45,1.875 4.95,2.775 1.5,0.9 3.825,2.25 5.25,3 1.425,0.675 3.75,2.025 5.325,3 1.5,0.9 3.9,2.25 5.4,2.925 1.5,0.75 3.6,2.025 4.8,2.85 1.125,0.825 5.475,3.525 9.75,6 7.575,4.425 9.75,5.85 10.8,6.9 0.375,0.375 2.1,1.5 3.975,2.7 1.875,1.125 4.875,3.075 6.6,4.425 1.725,1.275 3.525,2.4 3.975,2.4 0.45,0.075 1.575,0.9 2.55,1.95 0.975,1.05 2.175,1.875 2.625,1.875 0.45,0 1.65,0.825 2.625,1.875 0.975,1.05 2.175,1.875 2.625,1.875 0.45,0 1.65,0.825 2.625,1.875 0.975,1.05 2.175,1.875 2.625,1.875 0.525,0 1.5,0.75 2.325,1.575 1.425,1.65 4.575,3.9 10.5,7.575 1.725,1.125 6.6,4.875 10.725,8.4 4.2,3.525 11.1,9.45 15.375,13.125 4.35,3.675 9.6,8.4 11.775,10.5 2.1,2.1 4.2,3.825 4.5,3.825 0.375,0 0.675,0.3 0.675,0.6 0,0.3 3.975,4.65 8.85,9.6 4.8,5.025 10.2,10.725 11.85,12.75 1.725,2.025 3.825,4.425 4.725,5.4 0.825,0.9 2.325,2.775 3.225,4.05 0.975,1.35 2.325,3.075 3,3.75 2.625,2.625 6.6,7.5 7.875,9.675 0.75,1.2 1.575,2.175 1.875,2.175 0.3,0 1.05,1.125 1.725,2.55 0.675,1.425 1.95,3.375 2.85,4.35 0.9,0.975 2.175,2.7 2.775,3.975 0.6,1.2 1.725,2.775 2.4,3.45 0.675,0.75 1.8,2.625 2.55,4.2 0.75,1.575 1.65,3.075 1.95,3.3 0.975,0.6 4.35,7.5 4.35,8.7 0,0.525 0.3,0.975 0.75,0.975 0.375,0 1.2,1.275 1.875,2.85 0.675,1.5 1.575,3.375 1.95,4.05 0.375,0.75 0.675,1.8 0.675,2.4 0,0.6 0.525,1.275 1.125,1.5 0.6,0.225 1.125,0.9 1.125,1.575 0,0.6 0.3,1.8 0.75,2.625 0.45,0.825 1.05,2.175 1.5,3 0.45,0.825 0.75,2.175 0.75,2.925 0,0.825 0.525,1.65 1.125,1.875 0.6,0.225 1.125,1.2 1.125,2.25 0,1.05 0.3,2.1 0.75,2.325 0.45,0.225 0.75,1.275 0.75,2.25 0,0.975 0.3,2.025 0.75,2.25 0.45,0.225 0.75,1.275 0.75,2.25 0,0.975 0.525,1.95 1.125,2.175 0.675,0.225 1.125,1.35 1.125,3 0,1.425 0.3,2.85 0.75,3.075 0.45,0.225 0.75,1.575 0.75,3 0,1.425 0.3,2.775 0.75,3 0.45,0.225 0.75,1.95 0.75,3.75 0,1.8 0.3,3.525 0.75,3.75 0.45,0.225 0.75,2.025 0.75,3.975 0,1.95 0.375,3.9 0.75,4.35 0.45,0.525 1.05,7.575 1.35,16.875 0.525,15.225 0.6,16.05 2.025,16.05 1.95,0 2.475,-2.25 2.55,-11.25 0.15,-14.7 2.475,-39.45 5.4,-56.775 2.1,-13.05 5.325,-28.65 5.85,-29.1 0.3,-0.225 1.8,-5.4 3.375,-11.625 1.575,-6.225 3.15,-11.475 3.525,-11.775 0.375,-0.375 1.725,-4.2 3,-8.7 1.275,-4.425 2.625,-8.175 2.925,-8.4 0.375,-0.225 1.425,-2.4 2.325,-4.875 0.9,-2.475 1.875,-4.65 2.1,-4.875 0.3,-0.225 1.125,-2.1 1.95,-4.125 0.75,-2.025 1.575,-3.9 1.875,-4.125 0.225,-0.225 1.575,-3.225 3,-6.75 1.425,-3.525 2.775,-6.525 3.075,-6.75 0.375,-0.225 1.5,-2.475 2.625,-4.875 1.05,-2.475 2.175,-4.65 2.475,-4.875 0.225,-0.225 1.125,-1.8 1.875,-3.6 0.825,-1.725 1.65,-3.15 1.95,-3.15 0.3,0 1.35,-1.875 2.25,-4.125 0.9,-2.25 1.95,-4.125 2.175,-4.125 0.3,0 1.35,-1.65 2.325,-3.75 0.975,-2.025 2.325,-4.35 3,-5.1 0.75,-0.75 2.025,-2.85 2.925,-4.5 0.825,-1.725 2.175,-3.675 3,-4.275 0.75,-0.6 1.8,-2.1 2.325,-3.375 0.525,-1.2 1.2,-2.25 1.425,-2.25 0.3,0 1.275,-1.35 2.25,-3 0.9,-1.65 1.95,-3 2.325,-3 0.375,0 0.825,-0.6 1.05,-1.35 0.3,-0.75 1.125,-2.1 1.95,-3 0.825,-0.825 2.625,-3.375 4.05,-5.625 2.4,-3.675 4.275,-6.225 7.2,-9.45 0.6,-0.675 1.95,-2.4 3,-3.825 1.05,-1.425 2.475,-3.225 3.15,-3.9 0.75,-0.75 2.325,-2.625 3.525,-4.2 1.2,-1.5 3.15,-3.825 4.35,-5.175 1.125,-1.275 4.275,-4.875 6.975,-7.875 6.675,-7.5 16.8,-17.85 17.475,-17.85 0.3,0 2.85,-2.25 5.625,-5.1 8.25,-8.1 16.05,-15.375 19.2,-17.775 1.65,-1.2 6,-4.875 9.75,-8.1 3.75,-3.3 7.275,-6.075 7.8,-6.225 0.45,-0.15 3,-1.95 5.55,-4.05 2.625,-2.025 6,-4.65 7.5,-5.775 1.575,-1.2 4.5,-3.375 6.6,-4.875 2.025,-1.575 7.05,-5.1 11.1,-7.8 9.825,-6.6 10.8,-7.275 12.75,-8.4 0.9,-0.45 3.525,-2.1 5.775,-3.525 2.25,-1.425 4.5,-2.625 5.025,-2.625 0.6,0 1.425,-0.3 1.95,-0.75 0.525,-0.45 2.7,-1.725 4.8,-2.925 5.4,-2.85 9.075,-4.95 12.6,-7.2 2.85,-1.8 33.225,-16.8 37.125,-18.375 1.05,-0.45 4.425,-1.95 7.5,-3.375 5.85,-2.7 8.4,-3.825 19.875,-8.25 3.75,-1.425 8.4,-3.3 10.5,-4.125 4.65,-1.875 30.75,-10.425 41.1,-13.5 19.725,-5.775 60.45,-15 66.525,-15 1.5,0 7.125,-0.675 12.45,-1.5 22.8,-3.525 47.325,-5.775 70.05,-6.525 14.475,-0.375 16.125,-0.6 16.125,-1.725 0,-1.125 -1.725,-1.35 -16.35,-1.725 -21.675,-0.675 -55.65,-3.825 -69.75,-6.525 -2.1,-0.45 -7.35,-1.05 -11.475,-1.5 -11.625,-1.125 -33.375,-5.775 -59.325,-12.675 -19.125,-5.1 -50.325,-15.675 -63.3,-21.45 -2.325,-1.05 -4.5,-1.875 -4.875,-1.875 -2.025,0 -46.875,-21.375 -55.95,-26.625 -1.8,-1.05 -4.425,-2.55 -5.85,-3.375 -1.425,-0.825 -4.425,-2.55 -6.525,-3.75 -2.175,-1.275 -4.8,-2.7 -5.85,-3.075 -1.05,-0.45 -2.4,-1.125 -3,-1.5 -0.6,-0.375 -1.65,-0.9 -2.25,-1.2 -0.6,-0.225 -2.325,-1.35 -3.75,-2.4 -1.425,-1.05 -3.825,-2.625 -5.4,-3.45 -2.925,-1.575 -19.725,-12.975 -23.475,-15.825 -1.275,-0.975 -3.525,-2.7 -5.1,-3.825 -2.85,-2.1 -11.175,-8.625 -13.95,-10.875 -0.9,-0.75 -1.8,-1.35 -2.1,-1.35 -0.225,0 -2.85,-2.1 -5.775,-4.65 -2.925,-2.55 -7.2,-6.15 -9.45,-8.025 -4.65,-3.825 -9.825,-8.625 -17.775,-16.5 -3,-2.925 -5.7,-5.325 -5.925,-5.325 -0.6,0 -9.6,-9.225 -16.725,-17.175 -2.7,-3.075 -5.625,-6.3 -6.525,-7.125 -0.825,-0.9 -2.475,-2.925 -3.75,-4.575 -1.2,-1.65 -3.225,-4.05 -4.5,-5.325 -1.275,-1.275 -3.075,-3.375 -3.975,-4.65 -1.8,-2.55 -3.975,-5.175 -6.15,-7.575 -0.675,-0.75 -2.475,-3.45 -4.05,-5.925 -1.575,-2.55 -3.075,-4.65 -3.375,-4.65 -0.3,0 -1.125,-1.2 -1.95,-2.625 -0.75,-1.425 -1.575,-2.625 -1.8,-2.625 -0.3,0 -1.275,-1.425 -2.25,-3.075 -1.725,-3.15 -2.55,-4.2 -5.625,-7.65 -1.05,-1.125 -2.625,-3.525 -3.45,-5.25 -0.9,-1.725 -1.875,-3.3 -2.175,-3.525 -0.3,-0.225 -1.65,-2.55 -3,-5.175 -1.275,-2.7 -2.775,-5.25 -3.3,-5.7 -0.45,-0.525 -1.5,-2.325 -2.25,-4.05 -0.825,-1.65 -1.65,-3.075 -2.025,-3.075 -0.3,0 -1.125,-1.5 -1.875,-3.375 -0.675,-1.875 -1.5,-3.375 -1.8,-3.375 -0.3,0 -1.5,-2.25 -2.625,-5.1 -1.2,-2.775 -2.4,-5.175 -2.7,-5.4 -0.3,-0.225 -1.65,-3.075 -2.925,-6.375 -1.275,-3.3 -2.625,-6.15 -2.925,-6.375 -0.3,-0.225 -1.125,-2.1 -1.95,-4.125 -0.75,-2.025 -1.575,-3.9 -1.875,-4.125 -0.3,-0.225 -1.275,-2.625 -2.175,-5.4 -0.975,-2.85 -1.95,-5.1 -2.25,-5.1 -0.3,0 -1.725,-3.6 -3.075,-8.1 -1.35,-4.425 -2.7,-8.175 -3,-8.4 -0.3,-0.225 -1.875,-5.625 -3.45,-12 -1.575,-6.375 -3.15,-11.775 -3.375,-12 -0.525,-0.375 -3.6,-15.225 -5.55,-26.7 -3.15,-18.75 -5.625,-45.45 -5.625,-60.75 0,-7.275 -0.225,-9.3 -0.975,-9.3 -0.6,0 -1.275,0.225 -1.5,0.525 z"
     id="path2" />
  <path
     style="stroke-width:0.075;fill:#4772b9;fill-opacity:1"
     d="m 1086.75,330.525 c -67.95,3.525 -116.775,10.05 -174.45,23.1 -221.7,50.4 -419.7,179.55 -556.05,362.7 -47.625,63.975 -85.425,130.2 -115.875,202.8 -36.9,88.2 -60.675,183 -69.675,278.025 -3.45,36.15 -3.75,44.625 -3.6,91.5 0.15,47.25 0.525,58.125 3.225,88.2 1.8,19.8 2.625,27.075 3.075,27.6 0.225,0.15 109.35,0.225 242.55,0.15 l 242.175,-0.225 -1.65,-7.275 c -10.95,-47.025 -14.625,-106.05 -9.6,-154.725 11.4,-110.4 58.35,-210.675 135.3,-289.275 38.4,-39.225 80.475,-69.9 129.45,-94.275 57.45,-28.725 114.15,-44.25 181.125,-49.65 13.8,-1.125 53.4,-1.125 67.125,0 54.675,4.35 103.05,15.75 151.5,35.7 15.45,6.3 45.525,21.375 60,30.075 38.175,22.875 69.525,47.475 99.6,78.3 35.775,36.75 63.075,74.85 86.175,120.6 28.425,56.025 44.925,115.8 49.95,180.75 l 0.525,7.275 2.025,-0.225 c 1.2,-0.075 2.25,-0.45 2.475,-0.825 0.225,-0.45 1.725,-1.125 3.225,-1.65 1.5,-0.45 3,-1.2 3.3,-1.5 0.375,-0.375 1.8,-1.05 3.225,-1.575 1.425,-0.525 2.625,-1.2 2.625,-1.5 0,-0.3 0.45,-0.6 1.05,-0.6 0.6,0 1.575,-0.45 2.1,-0.975 0.525,-0.6 2.625,-1.5 4.575,-2.025 1.95,-0.6 3.525,-1.275 3.525,-1.65 0,-0.3 1.35,-0.975 3,-1.425 1.65,-0.525 3,-1.2 3,-1.5 0,-0.3 0.75,-0.75 1.65,-1.05 0.975,-0.3 3.3,-1.35 5.25,-2.325 2.025,-0.975 3.975,-1.8 4.425,-1.8 0.375,0 1.8,-0.975 3.15,-2.25 1.275,-1.2 3.3,-2.4 4.425,-2.625 1.2,-0.3 2.1,-0.75 2.1,-1.125 0,-0.375 1.275,-1.05 2.775,-1.575 1.575,-0.525 3.3,-1.35 3.825,-1.95 0.525,-0.525 1.575,-0.975 2.325,-0.975 0.75,0 2.25,-0.825 3.375,-1.875 1.125,-1.05 2.55,-1.875 3.15,-1.875 0.525,0 1.05,-0.3 1.05,-0.675 0,-0.375 1.05,-0.9 2.25,-1.2 1.275,-0.3 2.25,-0.75 2.25,-1.125 0,-0.375 1.2,-1.05 2.625,-1.5 1.425,-0.45 2.625,-1.2 2.625,-1.575 0,-0.45 1.05,-1.125 2.25,-1.5 1.2,-0.45 2.25,-1.125 2.25,-1.5 0,-0.3 0.825,-0.675 1.8,-0.675 2.7,-0.075 6.45,-1.5 8.25,-3.15 2.475,-2.25 3.075,-2.625 4.8,-3.15 0.9,-0.225 2.175,-1.125 2.85,-1.95 0.6,-0.825 1.8,-1.5 2.625,-1.5 0.75,0 1.425,-0.3 1.425,-0.675 0,-0.375 1.2,-1.125 2.7,-1.575 1.5,-0.525 3.375,-1.575 4.125,-2.325 1.875,-1.875 3.375,-2.925 4.275,-2.925 0.375,0 1.575,-0.825 2.7,-1.875 1.125,-1.05 2.55,-1.875 3.075,-1.875 0.975,0 2.85,-1.2 5.25,-3.6 0.6,-0.45 1.35,-0.9 1.65,-0.9 0.375,0 1.425,-0.675 2.325,-1.5 0.9,-0.825 2.775,-1.875 4.05,-2.4 1.35,-0.525 3,-1.425 3.75,-2.1 3.825,-3.45 6.15,-5.25 7.05,-5.25 0.525,0 1.875,-0.825 3.075,-1.8 1.125,-0.975 2.7,-1.95 3.375,-2.175 0.75,-0.225 1.35,-0.75 1.35,-1.125 0,-0.375 1.125,-1.2 2.4,-1.725 1.35,-0.525 3.6,-2.1 5.025,-3.45 1.425,-1.35 3,-2.475 3.6,-2.475 0.525,0 0.975,-0.3 0.975,-0.6 0,-0.375 0.9,-1.125 2.025,-1.725 2.7,-1.425 4.35,-2.55 5.775,-4.05 0.6,-0.6 1.425,-1.125 1.875,-1.125 0.45,0 0.825,-0.45 0.825,-1.05 0,-0.6 1.05,-1.425 2.25,-1.875 1.2,-0.375 2.25,-1.05 2.25,-1.5 0,-0.45 0.825,-0.975 1.875,-1.275 1.05,-0.3 2.25,-1.125 2.7,-1.875 0.375,-0.825 1.425,-1.425 2.175,-1.425 0.825,0 1.5,-0.525 1.5,-1.125 0,-0.6 0.3,-1.125 0.6,-1.125 0.375,0 1.275,-0.6 2.1,-1.35 0.75,-0.75 1.875,-1.575 2.4,-1.875 1.275,-0.75 6.3,-4.725 9.375,-7.425 1.275,-1.2 2.7,-2.1 3.15,-2.1 0.45,0 1.2,-0.675 1.725,-1.5 0.45,-0.825 1.2,-1.5 1.65,-1.5 0.375,0 2.325,-1.575 4.275,-3.6 1.95,-1.95 4.35,-3.9 5.25,-4.275 0.9,-0.375 2.4,-1.875 3.3,-3.225 0.9,-1.275 2.1,-2.4 2.625,-2.4 0.6,0 1.05,-0.3 1.05,-0.675 0,-0.375 1.05,-1.05 2.25,-1.5 1.275,-0.375 2.25,-1.05 2.25,-1.425 0,-0.375 0.75,-1.05 1.725,-1.575 0.9,-0.45 2.25,-1.875 3,-3.075 0.675,-1.275 1.65,-2.25 2.1,-2.25 0.825,0 2.4,-1.275 8.175,-6.9 1.125,-1.2 2.325,-2.1 2.55,-2.1 0.9,0 9.45,-9.075 10.65,-11.25 0.675,-1.2 1.8,-2.4 2.55,-2.625 0.75,-0.225 2.1,-1.5 3,-2.85 0.9,-1.35 2.1,-2.475 2.55,-2.625 0.525,-0.075 1.95,-1.35 3.15,-2.85 1.2,-1.5 3.6,-4.2 5.325,-6 1.8,-1.8 3.225,-3.75 3.225,-4.425 0,-0.6 0.45,-1.125 0.9,-1.125 1.125,0 5.1,-4.725 5.1,-5.925 0,-0.45 0.3,-0.825 0.6,-0.825 0.825,0 6.9,-5.775 6.9,-6.6 0,-0.375 0.825,-1.425 1.875,-2.4 1.05,-0.975 1.875,-2.1 1.875,-2.625 0,-0.45 0.825,-1.275 1.8,-1.875 1.05,-0.525 2.25,-1.95 2.775,-3.15 0.525,-1.2 1.95,-3.3 3.3,-4.65 1.275,-1.35 2.775,-3.525 3.3,-4.8 0.525,-1.35 1.425,-2.4 1.95,-2.4 0.525,0 1.275,-0.9 1.725,-2.1 0.75,-1.95 3.225,-5.175 7.8,-10.275 1.125,-1.275 2.1,-2.625 2.1,-3.075 0,-0.525 0.675,-1.125 1.5,-1.425 0.825,-0.3 1.5,-1.125 1.5,-1.875 0,-1.65 3,-7.275 4.35,-8.175 1.05,-0.675 3.15,-4.275 3.15,-5.475 0,-0.375 0.45,-1.2 0.9,-1.8 2.175,-2.25 2.925,-3.375 3.6,-5.175 0.975,-2.325 2.25,-4.275 3.6,-5.1 0.45,-0.3 0.9,-1.125 0.9,-1.725 0,-0.675 0.525,-1.65 1.125,-2.25 0.6,-0.675 1.125,-1.8 1.125,-2.55 0,-0.75 0.3,-1.65 0.75,-1.875 0.45,-0.225 0.75,-1.125 0.75,-1.875 0,-0.75 0.675,-1.65 1.5,-1.875 0.825,-0.225 1.5,-1.125 1.5,-1.95 0,-0.75 0.3,-2.1 0.75,-2.925 0.45,-0.825 1.05,-2.175 1.5,-3 0.375,-0.825 0.75,-2.025 0.75,-2.625 0,-0.6 0.525,-1.125 1.125,-1.125 0.6,0 1.2,-0.75 1.425,-1.65 0.15,-0.975 0.675,-2.7 1.125,-3.825 0.45,-1.2 0.825,-2.7 0.825,-3.45 0,-0.75 0.525,-1.575 1.125,-1.875 0.675,-0.3 1.125,-1.35 1.125,-2.625 0,-1.35 0.45,-2.4 1.125,-2.625 0.6,-0.15 1.125,-1.2 1.125,-2.175 0,-1.05 0.45,-2.25 1.05,-2.7 0.525,-0.45 1.2,-1.8 1.425,-2.925 1.125,-5.325 1.575,-6.6 2.85,-7.425 0.675,-0.525 1.425,-2.025 1.65,-3.375 0.225,-1.35 0.75,-3.9 1.2,-5.7 0.45,-1.725 1.05,-4.65 1.275,-6.525 0.3,-2.325 0.825,-3.375 1.65,-3.525 1.275,-0.225 1.725,-1.875 2.85,-10.725 0.3,-2.025 0.975,-4.125 1.5,-4.725 0.675,-0.6 1.05,-2.625 1.05,-5.4 0,-2.4 0.3,-4.65 0.75,-4.875 0.45,-0.225 0.75,-2.85 0.75,-5.7 0,-3.9 0.3,-5.325 1.125,-5.625 0.75,-0.3 1.125,-1.575 1.125,-3.975 0,-3 -1.35,-6 -9.75,-22.05 -39.45,-75.45 -84.9,-141 -140.775,-203.175 -21,-23.4 -57.225,-58.95 -82.05,-80.7 -60.9,-53.1 -131.25,-100.05 -204.3,-136.275 -119.7,-59.325 -245.7,-91.95 -381.3,-98.625 -13.425,-0.675 -73.725,-0.825 -84.825,-0.225 z"
     id="path1" />
</svg>
