<?xml version="1.0" encoding="UTF-8" standalone="no"?>

<svg
   version="1.1"
   id="ladis-icon"
   width="3600"
   height="3600"
   viewBox="0 0 3600 3600"
   xmlns="http://www.w3.org/2000/svg"
   xmlns:svg="http://www.w3.org/2000/svg">
  <style>
	@media (prefers-color-theme: dark) {
	.a { fill: #000000 }
	}
  </style>
  <g>
    <path
       id="ladis-icon-sparkle"
	   class="a"
       d="m 2982.6181,2566.25 c -1.5507,-15.9062 -3.9424,-32.5618 -6.2768,-43.711 -23.73,-113.335 -118.8231,-217.4102 -278.5901,-304.9048 C 2496.5369,2107.4415 2198.185,2027.7608 1868,1996.033 c -11.6694,-1.1213 -53.8803,-4.3673 -78.4055,-6.0293 -8.748,-0.5928 -16.173,-1.2389 -16.5,-1.4358 -0.327,-0.1969 -8.6609,-0.6524 -18.5198,-1.0123 -9.8589,-0.3598 -18.1839,-0.8058 -18.5,-0.9911 -0.3161,-0.1852 -13.6247,-0.6368 -29.5747,-1.0035 -15.95,-0.3667 -40.25,-1.084 -54,-1.5941 -13.75,-0.51 -30.9625,-0.9362 -38.25,-0.9471 -7.2875,-0.011 -13.25,-0.3858 -13.25,-0.8331 0,-0.4474 21.0375,-1.3741 46.75,-2.0593 25.7125,-0.6853 50.125,-1.4305 54.25,-1.6561 4.125,-0.2256 16.05,-0.6503 26.5,-0.9437 10.45,-0.2935 21.925,-0.8003 25.5,-1.1262 3.575,-0.3258 9.2,-0.7198 12.5,-0.8753 15.4625,-0.7289 89.9659,-6.9512 127,-10.6067 261.37,-25.7987 500.1092,-81.4771 685.3827,-159.8439 10.5711,-4.4713 23.499,-10.1425 28.7288,-12.6026 5.2298,-2.4601 9.6869,-4.4729 9.9046,-4.4729 0.2177,0 12.3024,-5.8133 26.855,-12.9184 188.4477,-92.008 301.9103,-207.2522 331.2398,-336.4413 2.9639,-13.0551 6.3639,-34.5408 6.3785,-40.3085 0.011,-4.4854 0.7753,-7.3318 1.9678,-7.3318 0.8569,0 2.4757,15.1294 4.6006,43 2.2616,29.6621 6.1307,52.6717 14.5452,86.5 37.7264,151.6692 123.2861,276.1544 244.6069,355.8913 88.5232,58.1809 195.9201,93.0155 321.5401,104.2928 3.7125,0.3333 6.75,0.8937 6.75,1.2453 0,0.3516 -10.9125,1.4392 -24.25,2.4168 -31.2644,2.2918 -51.5057,4.8212 -73.5257,9.1882 -104.2977,20.6842 -203.5391,67.7024 -282.7071,133.94 -81.106,67.859 -140.6002,154.9965 -175.5162,257.0677 -14.3922,42.0732 -26.1092,93.852 -30.4264,134.4579 -2.251,21.1722 -4.5816,47.0089 -4.5778,50.75 0.01,5.9004 -1.7081,3.3785 -2.3787,-3.5 z" />
	<path
       id="ladis-icon-circle"
       class="a"
       d="m 523.99339,1918.75 c -0.004,-1.2375 -0.65925,-10.575 -1.45692,-20.75 -5.13133,-65.4548 -4.53509,-152.4173 1.48781,-217 17.20496,-184.4863 72.43975,-359.3535 163.77712,-518.5 45.06194,-78.516 97.94698,-151.3929 161.10028,-222 17.48237,-19.54577 72.25055,-74.26303 92.38103,-92.29513 50.82833,-45.53007 99.15189,-82.81883 155.16049,-119.72926 174.6554,-115.10018 375.4476,-185.36898 584.0568,-204.39531 44.9657,-4.10112 57.6548,-4.58084 120.5,-4.55554 64.3869,0.0259 80.3298,0.71151 129,5.54743 161.2062,16.01762 321.356,63.97796 464.1202,138.99096 217.5803,114.32381 397.2398,287.59373 519.2614,500.79395 l 7.6447,13.3572 -4.0802,15.6428 c -25.4321,97.5008 -42.1011,153.7288 -59.6295,201.1429 -9.752,26.379 -32.2926,67.942 -53.0004,97.7283 -19.9198,28.6529 -48.786,60.3454 -73.6359,80.8458 -40.4674,33.3843 -98.6915,67.4351 -181.1803,105.9584 -28.2451,13.1908 -106.946,48.2904 -109.9915,49.0547 -2.1081,0.5291 -2.2547,0.1695 -2.919,-7.1618 -1.0467,-11.5505 -6.1532,-41.5394 -10.1149,-59.4022 -19.7134,-88.8841 -58.0984,-172.5511 -112.6419,-245.5232 -70.9203,-94.8821 -166.743,-168.426 -276.8327,-212.469 -60.8333,-24.3373 -124.9369,-39.0019 -193,-44.1514 -19.9379,-1.5085 -68.0621,-1.5085 -88,0 -89.7136,6.7876 -170.8728,29.5645 -249.5815,70.0436 -118.0005,60.6867 -215.8086,158.4948 -276.4953,276.4953 -40.4799,78.7101 -63.0965,159.3266 -70.019,249.5815 -1.5293,19.9379 -1.5293,68.0621 0,88 1.834,23.9113 6.7261,61.9005 9.6261,74.75 l 0.5078,2.25 H 847.01905 524 Z M 1744.5,3080.3712 c -74.2025,-3.7592 -137.7224,-11.6313 -205,-25.4059 C 1158.8882,2977.0382 831.00015,2725.5521 655.56746,2377 605.87445,2278.2692 568.818,2173.4398 547.57539,2071.5 c -1.94839,-9.35 -4.01691,-18.4289 -4.59672,-20.1754 -0.57981,-1.7465 -0.76342,-4.334 -0.40803,-5.75 L 543.21682,2043 h 331.77027 331.77031 l 1.2248,2.9571 c 0.6737,1.6264 1.2593,3.3139 1.3014,3.75 0.1904,1.9742 12.6746,28.4714 21.1829,44.9599 60.5106,117.2657 158.3815,214.9443 275.952,275.4098 78.6664,40.4574 159.9162,63.2597 249.5815,70.0436 20.0959,1.5204 68.2172,1.5115 88,-0.016 90.5331,-6.9918 170.8104,-29.5159 249.5815,-70.0272 77.8523,-40.0388 148.4506,-97.3841 203.8431,-165.5768 5.3611,-6.6 11.2766,-13.8771 13.1455,-16.1714 l 3.398,-4.1714 26.766,6.8453 c 29.8329,7.6296 51.9053,14.2306 75.7659,22.6586 86.3653,30.5058 206.7475,90.6395 284.1279,141.9285 82.5895,54.7417 116.4267,96.1718 139.385,170.6628 l 5.0915,16.5202 -17.9169,23.8949 c -40.9244,54.579 -71.8617,90.1953 -121.0966,139.4113 -39.4059,39.3907 -67.2931,64.5 -106.0909,95.5227 -163.4196,130.67 -356.9338,219.5183 -561.5,257.8019 -49.456,9.2554 -99.2641,15.4938 -157,19.664 -14.2435,1.0287 -122.157,2.0557 -137,1.3038 z" />
  </g>
</svg>
