<?xml version="1.0" encoding="utf-8"?>
<!DOCTYPE svg PUBLIC "-//W3C//DTD SVG 20010904//EN" "http://www.w3.org/TR/2001/REC-SVG-20010904/DTD/svg10.dtd">
<svg version="1.0" width="2700pt" height="2700pt" viewBox="0 0 2700 2700" preserveAspectRatio="xMidYMid meet" xmlns="http://www.w3.org/2000/svg">
  <g transform="translate(0,2700)scale(.075,.075)">
    <path id="path1" d="M 12710 -31243 c -906 47 -1557 134 -2326 308 -2956 672 -5596 2394 -7414 4836 -962 1293 -1668 2736 -2078 4251 -243 901 -378 1724 -433 2643 -16 257 -19 1198 -5 1407 l 8 128 3195 0 c 1757 0 3197 -1 3199 -3 2 -1 -3 -65 -10 -142 -51 -492 -38 -1052 34 -1555 195 -1349 812 -2595 1769 -3572 512 -523 1073 -932 1726 -1257 766 -383 1522 -590 2415 -662 184 -15 712 -15 895 0 729 58 1374 210 2020 476 206 84 607 285 800 401 509 305 927 633 1328 1044 659 676 1145 1453 1461 2334 56 157 63 171 84 168 12 -2 22 -7 22 -13 0 -5 9 -9 20 -9 11 0 20 -4 20 -10 0 -6 14 -10 30 -10 16 0 30 -4 30 -10 0 -6 9 -10 20 -10 11 0 20 -4 20 -10 0 -6 9 -10 20 -10 11 0 20 -4 20 -10 0 -6 14 -10 30 -10 16 0 30 -4 30 -10 0 -6 7 -10 16 -10 9 0 28 -13 44 -30 17 -18 38 -30 54 -30 14 0 26 -4 26 -10 0 -6 9 -10 20 -10 11 0 20 -4 20 -10 0 -6 14 -10 30 -10 16 0 30 -4 30 -10 0 -6 9 -10 20 -10 11 0 20 -4 20 -10 0 -6 9 -10 20 -10 11 0 20 -4 20 -10 0 -6 8 -10 18 -10 9 0 24 -9 32 -20 8 -11 23 -20 32 -20 10 0 18 -4 18 -10 0 -6 9 -10 20 -10 11 0 20 -4 20 -10 0 -6 22 -10 50 -10 28 0 50 -4 50 -10 0 -6 9 -10 20 -10 11 0 20 -4 20 -10 0 -6 12 -10 26 -10 16 0 37 -12 54 -30 15 -17 35 -30 44 -30 9 0 16 -4 16 -10 0 -6 14 -10 30 -10 16 0 30 -4 30 -10 0 -6 7 -10 16 -10 9 0 28 -14 44 -30 17 -18 38 -30 54 -30 14 0 26 -4 26 -10 0 -6 9 -10 20 -10 11 0 20 -4 20 -10 0 -6 9 -10 20 -10 11 0 20 -4 20 -10 0 -6 12 -10 26 -10 16 0 37 -12 54 -30 16 -16 35 -30 44 -30 9 0 16 -4 16 -10 0 -6 12 -10 26 -10 16 0 37 -12 54 -30 15 -17 35 -30 44 -30 9 0 16 -4 16 -10 0 -6 14 -10 30 -10 17 0 30 -4 30 -10 0 -6 7 -10 16 -10 9 0 29 -14 44 -30 16 -17 38 -30 50 -30 12 0 34 -13 50 -30 17 -18 38 -30 54 -30 14 0 26 -4 26 -10 0 -6 9 -10 20 -10 11 0 20 -4 20 -10 0 -6 8 -10 18 -10 10 0 24 -9 32 -20 8 -11 22 -20 32 -20 10 0 18 -4 18 -10 0 -6 7 -10 16 -10 9 0 29 -13 44 -30 17 -18 38 -30 54 -30 14 0 26 -4 26 -10 0 -6 7 -10 16 -10 9 0 29 -14 44 -30 15 -17 38 -30 50 -30 12 0 35 -14 50 -30 15 -16 35 -30 44 -30 9 0 16 -4 16 -10 0 -6 12 -10 26 -10 16 0 37 -12 54 -30 15 -17 34 -30 42 -30 7 0 20 -9 28 -20 8 -11 22 -20 32 -20 10 0 18 -4 18 -10 0 -6 8 -10 18 -10 10 0 24 -9 32 -20 8 -11 22 -20 32 -20 10 0 18 -4 18 -10 0 -6 7 -10 16 -10 9 0 29 -13 44 -30 17 -18 38 -30 54 -30 19 0 26 -5 26 -20 0 -13 7 -20 20 -20 11 0 20 -4 20 -10 0 -6 8 -10 18 -10 10 0 24 -9 32 -20 8 -11 22 -20 32 -20 10 0 18 -4 18 -10 0 -6 7 -10 16 -10 9 0 29 -14 44 -30 17 -18 38 -30 54 -30 19 0 26 -5 26 -20 0 -12 7 -20 16 -20 9 0 29 -14 44 -30 15 -17 38 -30 50 -30 12 0 35 -14 50 -30 15 -16 34 -30 42 -30 7 0 20 -9 28 -20 8 -11 21 -20 28 -20 8 0 27 -14 42 -30 15 -16 34 -30 42 -30 7 0 20 -9 28 -20 8 -11 21 -20 28 -20 8 0 27 -14 42 -30 15 -16 34 -30 42 -30 7 0 20 -9 28 -20 8 -11 20 -20 28 -20 7 0 35 -22 62 -50 28 -29 58 -50 70 -50 13 0 45 -24 80 -60 32 -33 66 -60 74 -60 9 0 16 -4 16 -10 0 -6 9 -10 20 -10 11 0 20 -4 20 -10 0 -6 8 -10 18 -10 10 0 24 -9 32 -20 8 -11 20 -20 28 -20 7 0 40 -27 72 -60 32 -33 64 -60 70 -60 6 0 29 -18 50 -40 21 -22 46 -40 54 -40 9 0 16 -4 16 -10 0 -6 7 -10 16 -10 9 0 33 -18 54 -40 21 -22 43 -40 49 -40 7 0 39 -27 71 -60 32 -33 64 -60 70 -60 14 0 80 -66 80 -80 0 -15 46 -60 62 -61 7 0 38 -27 68 -59 30 -32 61 -59 68 -59 18 -1 122 -108 122 -126 0 -8 7 -15 16 -15 8 0 33 -18 54 -40 21 -22 46 -40 54 -40 11 0 16 -9 16 -30 0 -20 5 -30 15 -30 9 0 40 -25 70 -55 30 -30 55 -61 55 -70 0 -8 7 -15 16 -15 9 0 33 -18 54 -40 21 -22 43 -40 49 -40 6 0 11 -20 11 -48 0 -41 -17 -79 -130 -295 -527 -1006 -1132 -1880 -1877 -2709 -280 -312 -763 -786 -1094 -1076 -812 -708 -1750 -1334 -2724 -1817 -1596 -791 -3276 -1226 -5084 -1315 -179 -9 -983 -11 -1131 -3 z M 26566 -24694 c -3 9 -6 26 -6 39 0 12 -7 25 -15 29 -13 4 -15 34 -15 181 0 110 -4 175 -10 175 -6 0 -10 38 -10 94 0 53 -4 98 -10 101 -6 3 -10 37 -10 75 0 49 -4 69 -14 73 -9 4 -16 28 -20 69 -13 151 -18 180 -32 185 -9 3 -14 20 -14 45 0 31 -4 41 -20 45 -17 4 -20 14 -20 54 0 35 -4 51 -15 55 -9 4 -15 19 -15 39 0 19 -4 37 -10 40 -6 3 -10 22 -10 42 0 26 -5 36 -20 40 -13 3 -20 14 -20 29 0 12 -4 26 -10 29 -6 3 -10 19 -10 34 0 16 -7 34 -15 41 -8 7 -15 23 -15 36 0 14 -8 25 -20 29 -14 4 -20 15 -20 35 0 16 -4 32 -10 35 -6 3 -10 19 -10 35 0 15 -7 30 -15 34 -9 3 -15 18 -15 36 0 18 -6 33 -15 36 -8 4 -15 16 -15 29 0 14 -7 25 -20 28 -11 3 -20 13 -20 23 0 28 -33 94 -47 94 -7 0 -13 9 -13 19 0 11 -4 23 -10 26 -6 3 -10 18 -10 32 0 16 -7 27 -20 30 -11 3 -20 13 -20 23 0 15 -8 28 -50 77 -5 7 -10 19 -10 28 0 9 -7 18 -15 21 -8 4 -15 12 -15 20 0 7 -9 18 -20 24 -11 6 -20 17 -20 25 0 19 -33 75 -45 75 -10 0 -55 92 -55 111 0 5 -11 11 -25 15 -16 4 -25 13 -25 25 0 10 -11 26 -25 35 -14 9 -25 25 -25 35 0 10 -13 25 -30 34 -17 9 -30 20 -30 25 0 14 -51 85 -59 83 -4 -1 -16 18 -26 43 -10 24 -24 44 -32 44 -7 0 -13 4 -13 10 0 6 -7 10 -15 10 -8 0 -15 7 -15 14 0 8 -6 19 -13 23 -6 4 -19 21 -27 37 -8 16 -23 31 -32 34 -10 2 -18 10 -18 17 0 7 -11 24 -25 36 -13 13 -25 30 -25 37 0 6 -4 12 -9 12 -4 0 -22 13 -39 30 -18 16 -36 30 -42 30 -5 0 -10 9 -10 20 0 11 -12 26 -29 35 -16 8 -32 24 -36 35 -3 11 -11 20 -16 20 -5 0 -9 7 -9 15 0 8 -7 15 -14 15 -8 0 -21 12 -28 28 -7 15 -23 28 -36 30 -14 2 -24 13 -28 28 -3 13 -20 34 -38 47 -17 12 -52 43 -78 70 -27 26 -48 44 -48 40 0 -5 -14 13 -30 39 -17 27 -35 48 -41 48 -6 0 -32 21 -59 48 -79 77 -121 112 -135 112 -7 0 -20 11 -29 25 -9 14 -23 25 -31 25 -8 0 -24 13 -36 29 -11 16 -32 34 -45 41 -13 7 -26 21 -29 30 -3 10 -25 23 -51 30 -33 9 -49 21 -60 42 -8 16 -31 36 -49 44 -19 7 -37 20 -42 27 -4 7 -24 24 -43 38 -19 13 -46 36 -59 51 -13 16 -31 28 -40 28 -19 1 -51 23 -51 36 0 11 -65 54 -82 54 -7 0 -18 10 -23 22 -6 13 -21 25 -35 28 -14 3 -29 16 -35 28 -5 12 -18 22 -27 22 -10 0 -18 4 -18 10 0 6 -6 10 -13 10 -7 0 -30 15 -51 34 -20 19 -53 40 -72 46 -23 8 -34 18 -34 31 0 12 -7 19 -19 19 -10 0 -24 7 -31 15 -7 8 -19 15 -26 15 -8 0 -14 4 -14 10 0 6 -7 10 -15 10 -8 0 -18 6 -22 13 -4 7 -20 18 -35 24 -16 7 -28 17 -28 23 0 5 -6 10 -13 10 -8 0 -22 9 -32 20 -10 11 -26 20 -35 20 -9 0 -29 11 -44 25 -15 14 -32 25 -39 25 -7 0 -27 14 -46 30 -18 17 -42 30 -51 30 -10 0 -30 14 -43 30 -14 16 -30 30 -36 30 -13 0 -75 33 -79 42 -2 5 -10 8 -17 8 -7 0 -15 4 -17 8 -2 4 -24 18 -50 30 -27 12 -48 29 -48 37 0 8 -12 17 -28 20 -42 9 -92 37 -92 52 0 7 -6 13 -13 13 -7 0 -30 9 -52 20 -22 11 -45 20 -52 20 -7 0 -13 6 -13 13 0 16 -41 37 -70 37 -11 0 -25 9 -32 20 -7 11 -18 20 -25 20 -7 0 -13 4 -13 9 0 5 -13 12 -29 16 -16 3 -38 15 -49 26 -12 10 -26 19 -32 19 -6 0 -18 7 -26 15 -9 8 -28 15 -43 15 -39 0 -89 19 -95 36 -3 8 -12 14 -21 14 -8 0 -15 4 -15 10 0 5 -19 15 -42 22 -24 7 -49 19 -56 26 -7 6 -22 12 -33 12 -10 0 -24 9 -31 20 -7 11 -21 20 -30 20 -10 0 -18 4 -18 10 0 6 -6 10 -13 10 -7 0 -30 9 -52 20 -22 11 -45 20 -51 20 -7 0 -19 6 -26 14 -8 7 -25 17 -38 21 -22 7 -77 40 -90 55 -7 7 -69 31 -100 38 -14 3 -32 13 -40 23 -9 9 -50 28 -93 41 -42 12 -77 28 -77 35 0 6 -34 21 -75 34 -41 12 -75 27 -75 34 0 6 -19 18 -42 25 -76 22 -98 32 -98 44 0 6 -35 22 -79 35 -45 13 -84 32 -92 42 -7 11 -20 19 -29 19 -29 0 -135 31 -138 40 -2 6 -10 10 -18 10 -8 0 -14 4 -14 8 0 4 -28 16 -62 26 -34 10 -68 24 -76 32 -7 8 -27 14 -43 14 -16 0 -29 4 -29 8 0 5 -22 14 -50 21 -28 7 -50 17 -50 22 0 5 -12 12 -28 15 -15 4 -33 11 -40 17 -7 5 -33 13 -58 18 -25 5 -52 15 -60 24 -9 8 -26 15 -38 15 -13 0 -33 9 -46 20 -13 11 -36 20 -52 20 -15 0 -28 4 -28 9 0 5 -15 12 -32 15 -18 4 -44 13 -58 19 -14 7 -28 12 -32 12 -3 0 -10 3 -14 7 -4 5 -18 8 -31 8 -13 0 -23 4 -23 8 0 9 -106 42 -134 42 -10 0 -26 8 -35 19 -9 10 -32 21 -51 25 -73 15 -140 39 -140 51 0 7 -18 16 -40 19 -22 3 -60 10 -85 16 -25 6 -56 12 -70 15 -14 3 -25 12 -25 20 0 8 -14 16 -38 20 -20 3 -53 10 -72 16 -19 5 -50 12 -68 15 -19 3 -32 11 -32 19 0 9 -16 16 -45 19 -101 13 -187 35 -199 52 -9 11 -22 15 -39 12 -15 -3 -28 -1 -29 3 -3 8 -50 21 -136 36 -20 3 -44 14 -52 23 -8 9 -33 20 -55 23 -78 12 -139 27 -144 35 -3 5 -24 12 -45 15 -21 3 -42 10 -45 15 -3 5 -23 12 -43 16 -21 3 -54 9 -73 12 -19 3 -35 10 -35 15 0 5 -14 9 -31 9 -17 0 -43 6 -57 14 -30 15 -112 36 -142 36 -11 0 -20 4 -20 10 0 6 -8 10 -17 10 -30 0 -123 24 -123 32 0 5 -15 8 -34 8 -19 0 -41 6 -48 14 -8 7 -54 19 -103 26 -50 7 -96 17 -103 22 -6 6 -12 7 -12 3 0 -5 -6 -3 -12 3 -7 7 -25 12 -40 12 -16 0 -28 4 -28 9 0 5 -29 14 -65 20 -36 6 -81 14 -100 17 -19 4 -38 10 -41 15 -3 5 -18 9 -34 9 -15 0 -30 4 -32 9 -2 7 -250 51 -287 51 -6 0 -11 6 -11 14 0 16 -8 18 -165 43 -62 9 -105 21 -105 27 0 11 -125 35 -272 52 -29 4 -57 12 -63 19 -10 12 -247 55 -303 55 -19 0 -32 6 -36 16 -4 11 -14 15 -31 12 -14 -3 -25 -2 -25 2 0 6 -89 21 -212 36 -32 3 -58 10 -58 15 0 5 -16 9 -35 9 -19 0 -35 4 -35 9 0 5 -26 11 -58 14 -100 9 -237 30 -242 37 -3 4 -39 10 -80 14 -41 3 -77 10 -80 15 -3 4 -58 13 -122 20 -65 7 -118 17 -118 21 0 4 -41 11 -90 15 -50 4 -90 10 -90 14 0 4 -53 12 -117 19 -64 7 -120 16 -123 21 -3 5 -64 14 -135 21 -71 7 -132 16 -135 20 -3 4 -50 10 -105 14 -54 4 -102 10 -105 15 -3 4 -67 13 -142 19 -76 7 -149 17 -162 23 -13 6 -38 9 -55 7 -17 -2 -31 -1 -31 4 0 4 -29 8 -64 8 -35 0 -65 4 -67 9 -2 5 -101 16 -219 25 -118 9 -223 21 -232 26 -10 6 -40 10 -66 10 -27 0 -51 4 -53 8 -6 13 -564 52 -726 52 -80 0 -103 3 -103 13 0 11 -31 15 -132 20 -73 4 -244 13 -380 22 -137 8 -282 15 -323 15 -55 0 -75 3 -75 13 0 10 -73 16 -342 26 -189 7 -450 17 -580 22 -131 5 -317 9 -413 9 -149 0 -175 2 -175 15 0 13 -50 15 -394 15 -216 0 -401 3 -411 6 -50 19 41 24 405 24 348 0 400 2 400 15 0 13 25 15 162 15 165 1 455 10 1030 32 248 9 318 15 318 25 0 9 18 13 62 13 35 0 186 7 336 15 149 8 326 18 392 21 91 5 120 10 120 20 0 11 27 14 125 14 69 0 178 4 243 10 64 5 195 15 290 22 94 6 172 15 172 20 0 4 23 8 50 8 28 0 59 4 70 10 11 6 114 17 230 25 116 8 213 19 217 25 3 6 35 10 70 10 34 0 63 4 63 8 0 5 16 6 35 4 19 -2 40 -1 47 4 7 5 77 15 156 22 78 6 146 16 150 22 4 5 51 12 105 16 53 4 97 10 97 14 0 3 62 12 138 19 75 7 139 17 142 22 3 4 58 14 123 21 64 7 117 15 117 19 0 4 40 10 90 14 49 4 90 11 90 15 0 4 53 13 118 20 64 8 119 17 123 22 3 4 40 11 82 14 42 4 77 10 77 14 0 6 94 21 228 37 23 3 42 9 42 14 0 5 22 9 50 9 28 0 50 4 50 9 0 5 61 17 135 26 74 10 135 21 135 25 0 4 11 5 25 2 16 -3 27 1 31 12 4 9 18 16 35 16 57 0 294 43 304 55 10 11 146 36 277 51 37 4 58 11 58 19 0 11 87 31 228 51 26 4 42 11 42 20 0 8 2 14 5 14 36 0 291 44 293 51 2 5 17 9 32 9 16 0 31 4 34 9 3 4 23 11 43 15 21 4 66 11 101 17 34 6 62 15 62 20 0 5 9 9 19 9 11 0 23 4 26 10 3 5 12 7 20 3 8 -3 22 0 30 6 8 6 55 17 104 23 49 7 94 19 100 26 7 6 27 12 46 12 19 0 35 3 35 8 0 8 93 32 123 32 9 0 17 4 17 10 0 6 9 10 20 10 32 0 108 19 139 35 16 8 43 15 60 15 17 0 31 4 31 9 0 8 18 13 105 27 22 4 43 11 46 16 3 5 22 11 43 13 20 3 40 9 44 15 8 10 75 27 142 35 22 3 49 14 60 25 11 11 35 22 52 25 76 12 133 26 136 34 1 4 14 6 28 3 17 -3 31 2 44 16 18 19 41 24 200 48 24 4 40 11 40 20 0 8 15 15 35 19 19 3 52 10 73 16 20 6 52 13 70 16 18 2 32 10 32 18 0 18 41 30 180 51 22 3 40 12 40 19 0 12 76 39 145 52 16 3 37 14 46 24 9 11 25 19 36 19 36 0 127 33 145 53 9 10 27 18 40 16 13 -1 36 3 53 10 17 7 42 15 57 18 16 3 28 9 28 14 0 5 13 9 28 9 16 0 39 9 52 20 13 11 33 20 46 20 12 0 29 7 38 15 8 9 36 19 61 24 24 5 50 13 57 18 7 6 25 13 40 17 16 4 28 11 28 15 0 5 22 15 50 22 28 7 50 16 50 21 0 4 13 8 30 8 16 0 35 6 42 14 7 7 40 22 73 31 33 10 61 22 63 27 2 4 10 8 18 8 8 0 14 4 14 8 0 5 17 13 38 19 20 5 50 18 65 27 15 10 34 15 42 12 8 -3 19 4 25 15 6 10 20 19 32 19 37 0 138 34 138 46 0 12 21 21 98 44 23 8 42 19 42 25 0 7 34 22 75 34 41 13 75 28 75 34 0 7 35 23 79 36 43 13 84 31 91 41 7 10 26 21 41 24 58 12 89 26 109 50 11 13 40 29 65 36 25 7 45 16 45 21 0 5 11 11 25 15 14 3 42 15 62 25 21 11 43 19 50 19 7 0 13 5 13 10 0 5 8 10 18 10 9 0 23 9 30 20 7 11 21 20 32 20 10 0 25 6 32 12 7 7 32 19 56 26 23 7 42 17 42 22 0 6 6 10 13 10 7 0 20 9 29 19 9 11 31 22 50 25 72 11 87 17 93 35 3 11 26 24 65 36 33 10 60 22 60 27 0 4 6 8 13 8 7 0 18 9 25 20 7 11 21 20 32 20 28 0 70 21 70 36 0 11 95 54 121 54 5 0 9 6 9 13 0 16 51 47 79 47 14 0 25 9 31 25 5 14 14 25 20 25 17 0 90 34 90 42 0 5 7 8 15 8 8 0 15 4 15 10 0 6 6 10 14 10 7 0 19 7 26 15 7 8 21 15 32 15 10 0 30 14 45 30 14 17 33 30 43 30 10 0 32 13 49 30 17 16 38 30 46 30 9 0 31 15 49 33 18 18 38 31 44 29 7 -2 12 0 12 6 0 5 11 13 25 16 14 4 34 15 45 26 11 11 26 20 34 20 8 0 17 7 20 15 3 8 12 15 20 15 9 0 16 5 16 10 0 6 6 10 14 10 7 0 19 7 26 15 7 8 21 15 31 15 12 0 19 7 19 19 0 13 11 23 34 31 19 6 53 29 75 51 23 21 54 42 69 45 16 3 32 15 38 27 5 12 20 24 34 27 14 3 30 17 37 32 8 16 25 30 44 35 35 9 49 20 65 48 6 11 23 22 38 23 19 3 34 14 48 38 11 19 27 34 37 34 9 0 37 20 63 45 26 25 54 45 62 45 9 0 22 13 30 29 11 20 28 32 60 41 26 7 48 20 51 30 3 9 16 22 29 29 13 7 33 26 45 42 12 16 28 29 36 29 8 0 22 11 31 25 9 14 21 25 26 25 5 0 27 18 48 40 21 22 43 40 48 40 5 0 14 10 21 23 6 12 31 36 55 52 24 16 54 43 67 60 13 16 26 30 29 30 3 1 29 24 59 53 30 29 62 57 72 63 11 6 19 19 19 29 0 20 21 39 47 42 10 2 24 15 31 30 7 16 19 28 27 28 8 0 15 7 15 15 0 8 4 15 9 15 5 0 13 9 16 21 4 11 20 27 36 34 16 8 29 23 29 32 0 10 14 26 30 35 17 9 30 23 30 30 0 7 12 22 26 33 41 31 44 34 47 52 1 10 14 24 30 31 15 7 27 19 27 27 0 7 11 24 25 37 14 13 25 29 25 36 0 6 7 12 15 12 9 0 18 7 20 15 3 8 16 27 30 42 14 15 25 33 25 40 0 7 6 13 12 13 12 1 58 64 58 80 0 4 13 17 30 30 16 13 30 31 30 41 0 10 11 25 25 33 14 8 25 24 25 35 0 11 9 21 24 25 16 4 30 22 47 61 13 30 29 55 35 55 6 0 19 20 28 45 10 25 26 50 37 55 10 6 19 17 19 24 0 8 7 17 15 20 8 3 15 12 15 21 0 9 7 23 15 31 8 9 15 24 15 34 0 10 7 21 15 24 8 3 15 12 15 19 0 8 9 17 20 20 13 4 20 14 20 31 0 13 4 28 10 31 6 3 10 15 10 26 0 10 6 19 13 19 14 0 47 66 47 95 0 9 9 19 20 22 14 4 20 13 20 33 0 16 7 30 15 34 8 3 15 17 15 31 0 14 7 28 15 31 9 4 15 18 15 34 0 16 4 32 10 35 6 3 10 19 10 35 0 19 6 30 20 35 12 4 20 16 20 30 0 12 7 28 15 35 8 7 15 25 15 41 0 15 4 31 10 34 6 3 10 19 10 36 0 19 5 29 15 29 8 0 17 12 20 28 3 15 10 41 15 58 6 16 10 40 10 53 0 12 7 29 15 37 8 9 15 31 15 49 0 24 5 34 20 38 16 4 20 14 20 50 0 31 5 47 15 51 11 4 15 20 15 60 0 30 4 58 10 61 6 3 10 33 10 66 0 39 5 64 14 72 14 12 22 71 32 244 3 51 9 93 14 93 6 0 11 93 12 212 3 186 5 213 19 216 9 2 20 -5 25 -15 4 -10 10 -107 12 -216 3 -140 7 -197 15 -197 9 0 11 -28 9 -96 -2 -59 1 -100 7 -107 6 -7 11 -30 11 -52 -1 -65 32 -440 39 -445 3 -3 17 -93 30 -200 15 -116 29 -199 37 -205 7 -5 18 -52 25 -103 6 -50 15 -92 19 -92 4 0 5 -12 2 -26 -3 -17 0 -31 9 -38 9 -6 25 -65 39 -141 13 -71 29 -135 36 -140 6 -5 17 -39 24 -75 7 -36 17 -69 21 -75 5 -5 9 -18 9 -27 0 -10 5 -18 10 -18 5 0 10 -8 10 -17 0 -30 24 -123 32 -123 4 0 5 -7 2 -15 -8 -18 12 -75 26 -75 6 0 10 -11 10 -24 0 -13 5 -26 11 -28 5 -2 15 -24 20 -48 6 -25 14 -48 20 -52 15 -13 38 -74 45 -118 3 -24 11 -40 19 -40 7 0 17 -15 20 -32 10 -43 38 -108 46 -108 4 0 13 -22 19 -50 6 -27 16 -52 21 -56 5 -3 7 -10 3 -15 -3 -5 1 -12 10 -15 8 -3 12 -12 9 -20 -3 -8 0 -14 6 -14 6 0 11 -8 11 -19 0 -10 9 -29 20 -41 11 -12 20 -31 20 -42 0 -10 9 -28 19 -40 11 -11 26 -43 32 -69 7 -27 18 -49 23 -49 6 0 21 -22 34 -50 13 -27 27 -50 32 -50 6 0 10 -11 10 -24 0 -13 6 -31 14 -38 7 -8 16 -24 20 -36 3 -12 9 -25 14 -30 4 -4 18 -30 32 -57 13 -27 34 -60 46 -72 12 -12 27 -42 35 -67 7 -26 20 -46 27 -46 7 0 10 -4 7 -10 -3 -5 -2 -10 3 -10 6 0 13 -11 16 -24 3 -13 15 -27 26 -31 11 -4 23 -21 29 -40 5 -19 21 -46 35 -60 14 -14 26 -32 26 -39 0 -8 4 -15 8 -17 12 -5 82 -104 82 -115 0 -5 11 -19 25 -32 14 -13 25 -32 25 -43 0 -10 4 -19 10 -19 6 0 10 -7 10 -15 0 -8 7 -15 15 -15 8 0 15 -9 15 -20 0 -11 4 -20 10 -20 6 0 10 -6 10 -13 0 -7 9 -19 20 -27 11 -8 20 -20 20 -26 0 -6 7 -14 16 -18 8 -3 12 -11 9 -16 -3 -5 10 -24 30 -41 19 -17 35 -37 35 -43 0 -7 11 -23 25 -37 25 -23 60 -78 57 -90 0 -3 13 -14 29 -24 16 -11 29 -25 29 -31 0 -7 16 -29 35 -50 19 -22 35 -44 35 -49 0 -5 14 -18 30 -27 18 -10 30 -25 30 -38 0 -11 6 -20 14 -20 7 0 23 -16 35 -35 11 -19 25 -35 31 -35 5 0 16 -12 24 -28 8 -15 33 -47 55 -72 23 -24 41 -48 41 -52 0 -3 9 -10 20 -13 11 -4 18 -10 16 -14 -3 -3 8 -15 22 -25 15 -10 36 -33 47 -50 11 -17 31 -32 43 -34 12 -2 22 -10 22 -18 0 -17 23 -44 37 -44 8 0 55 -50 105 -111 5 -5 22 -18 38 -30 16 -11 30 -27 30 -35 0 -8 4 -13 10 -9 5 3 21 -12 35 -33 14 -21 43 -49 65 -63 22 -13 40 -29 40 -34 0 -6 18 -22 40 -35 22 -14 40 -31 40 -38 0 -6 4 -12 9 -12 6 0 43 -31 83 -69 129 -123 173 -161 184 -161 7 0 40 -27 74 -60 34 -33 68 -60 75 -60 7 0 24 -12 37 -28 25 -29 82 -72 96 -72 4 0 18 -14 31 -30 12 -17 25 -29 29 -26 4 2 28 -13 52 -34 25 -22 56 -45 70 -52 14 -7 33 -23 43 -36 10 -12 27 -22 38 -22 10 0 23 -9 29 -20 5 -10 22 -26 38 -34 15 -8 37 -24 50 -35 12 -12 42 -30 66 -42 24 -11 46 -25 49 -32 3 -7 27 -23 53 -37 27 -14 55 -33 62 -42 7 -10 22 -18 33 -18 10 0 27 -4 37 -9 9 -5 25 -12 35 -15 10 -3 16 -10 13 -14 -3 -5 23 -22 57 -38 34 -16 67 -36 74 -45 7 -9 30 -24 53 -33 22 -9 40 -19 40 -23 0 -5 23 -18 50 -31 28 -13 58 -31 68 -41 9 -9 36 -23 59 -31 24 -7 51 -21 62 -32 11 -10 26 -18 33 -18 7 0 24 -9 38 -20 14 -11 30 -20 37 -20 7 0 17 -7 23 -15 5 -8 32 -22 59 -30 26 -9 58 -25 69 -35 12 -11 27 -20 34 -20 8 0 23 -7 33 -15 11 -8 27 -14 36 -15 8 0 24 -8 35 -19 11 -10 44 -26 72 -35 29 -9 59 -21 67 -27 8 -6 15 -8 15 -3 0 5 7 -1 15 -13 9 -13 39 -28 72 -38 32 -9 63 -23 70 -31 14 -15 88 -44 115 -44 9 0 24 -7 32 -15 18 -18 138 -65 167 -65 11 0 18 -4 15 -9 -6 -9 85 -46 136 -56 16 -3 32 -10 36 -15 10 -13 110 -50 134 -50 9 0 23 -7 32 -15 9 -8 35 -20 58 -26 91 -23 142 -39 147 -48 3 -5 26 -12 51 -16 24 -4 51 -11 60 -16 8 -4 36 -13 62 -20 27 -6 48 -15 48 -18 0 -4 29 -13 65 -19 36 -7 72 -16 80 -22 8 -6 35 -13 60 -16 25 -4 45 -10 45 -14 0 -5 36 -15 80 -24 44 -9 89 -18 100 -21 11 -3 32 -8 48 -11 15 -4 29 -10 32 -15 3 -4 57 -17 120 -29 157 -28 159 -29 168 -38 10 -12 274 -52 342 -52 36 0 64 -5 72 -14 8 -8 35 -16 59 -18 295 -29 409 -44 409 -54 0 -11 329 -39 598 -51 102 -4 151 -10 160 -20 9 -9 44 -13 117 -13 86 0 105 -3 105 -15 0 -12 -18 -15 -104 -15 -75 0 -108 -4 -118 -14 -10 -9 -52 -15 -138 -18 -248 -9 -620 -41 -620 -53 0 -7 -50 -16 -139 -24 -212 -20 -295 -32 -307 -47 -7 -9 -33 -14 -73 -14 -71 0 -353 -39 -361 -50 -6 -9 -32 -15 -175 -41 -60 -11 -112 -23 -115 -27 -3 -4 -18 -10 -35 -15 -17 -4 -39 -10 -50 -13 -11 -3 -55 -13 -97 -21 -43 -8 -78 -19 -78 -23 0 -5 -19 -11 -42 -15 -23 -4 -49 -11 -58 -15 -8 -5 -41 -14 -72 -20 -32 -6 -58 -15 -58 -19 0 -4 -28 -13 -62 -20 -35 -8 -69 -18 -76 -22 -6 -5 -31 -12 -54 -15 -23 -4 -48 -13 -56 -20 -7 -8 -23 -14 -35 -14 -13 0 -32 -7 -45 -15 -12 -8 -41 -18 -64 -21 -23 -4 -48 -13 -56 -20 -7 -8 -21 -14 -30 -14 -16 0 -123 -41 -132 -50 -3 -3 -25 -12 -50 -19 -88 -26 -130 -44 -124 -52 3 -5 -4 -9 -15 -9 -27 0 -161 -50 -161 -60 0 -5 -26 -16 -58 -25 -80 -24 -102 -33 -102 -44 0 -5 -23 -15 -51 -22 -28 -7 -62 -23 -75 -36 -13 -12 -24 -20 -24 -16 0 3 -6 1 -12 -4 -7 -6 -38 -18 -68 -28 -30 -10 -63 -27 -74 -37 -11 -10 -27 -18 -35 -18 -9 0 -25 -7 -35 -15 -11 -8 -27 -15 -35 -15 -9 0 -21 -8 -27 -18 -7 -10 -39 -26 -73 -37 -33 -10 -62 -24 -65 -31 -3 -8 -11 -14 -18 -14 -7 0 -24 -9 -38 -20 -14 -11 -33 -20 -42 -20 -10 0 -18 -4 -18 -8 0 -10 -99 -62 -118 -62 -6 0 -12 -4 -12 -8 0 -5 -26 -22 -58 -38 -31 -16 -62 -34 -67 -40 -5 -6 -25 -17 -43 -24 -18 -7 -38 -20 -45 -29 -7 -9 -40 -29 -74 -45 -34 -16 -60 -32 -58 -36 6 -9 -61 -40 -85 -40 -11 0 -27 -11 -36 -25 -9 -14 -22 -25 -30 -25 -20 0 -74 -35 -90 -59 -8 -12 -22 -21 -30 -21 -19 0 -51 -19 -88 -52 -17 -16 -37 -28 -43 -28 -7 0 -20 -11 -29 -25 -9 -14 -25 -25 -35 -25 -10 0 -28 -13 -40 -29 -12 -16 -31 -32 -43 -35 -11 -3 -41 -23 -66 -45 -24 -22 -48 -37 -52 -35 -4 3 -17 -9 -29 -26 -13 -16 -27 -30 -31 -30 -14 0 -70 -42 -96 -72 -13 -16 -30 -28 -37 -28 -7 0 -37 -23 -66 -52 -58 -56 -114 -98 -129 -98 -6 0 -10 -6 -10 -13 0 -7 -14 -21 -31 -31 -17 -10 -62 -49 -100 -87 -38 -38 -74 -69 -79 -69 -6 0 -10 -6 -10 -12 0 -7 -18 -24 -40 -38 -22 -13 -40 -29 -40 -35 0 -5 -18 -21 -40 -34 -21 -13 -49 -40 -62 -60 -13 -20 -29 -35 -36 -33 -6 1 -12 -4 -12 -12 0 -8 -15 -25 -32 -38 -18 -13 -36 -28 -41 -33 -30 -40 -92 -105 -99 -105 -15 0 -38 -27 -38 -44 0 -9 -8 -16 -18 -16 -20 0 -52 -29 -52 -47 0 -5 -17 -22 -37 -36 -21 -15 -34 -27 -30 -27 4 0 -12 -19 -34 -42 -23 -24 -54 -58 -68 -76 -14 -18 -38 -45 -52 -60 -14 -15 -29 -35 -33 -45 -3 -11 -15 -21 -26 -24 -11 -3 -20 -12 -20 -20 0 -9 -19 -35 -42 -60 -70 -73 -88 -95 -88 -109 0 -8 -5 -14 -10 -14 -6 0 -15 -11 -20 -25 -5 -14 -14 -25 -19 -25 -5 0 -20 -17 -32 -38 -13 -20 -31 -43 -41 -50 -10 -7 -18 -19 -18 -27 0 -7 -16 -27 -36 -44 -19 -17 -32 -36 -29 -41 3 -6 -1 -13 -9 -16 -9 -3 -16 -11 -16 -18 0 -6 -9 -18 -20 -26 -11 -8 -25 -29 -31 -47 -6 -18 -17 -33 -25 -33 -8 0 -14 -7 -14 -15 0 -8 -4 -15 -10 -15 -6 0 -10 -9 -10 -20 0 -12 -11 -31 -25 -44 -14 -13 -25 -26 -25 -30 0 -11 -72 -116 -80 -116 -4 0 -11 -12 -15 -27 -3 -15 -17 -36 -29 -48 -13 -12 -26 -33 -29 -47 -4 -15 -16 -30 -27 -33 -11 -3 -23 -17 -26 -31 -3 -13 -10 -24 -16 -24 -5 0 -6 -4 -3 -10 3 -6 0 -10 -7 -10 -8 0 -19 -20 -27 -44 -7 -24 -21 -53 -31 -63 -9 -11 -30 -47 -46 -81 -15 -34 -32 -62 -36 -62 -4 0 -8 -5 -8 -11 0 -18 -42 -101 -62 -123 -10 -11 -22 -34 -29 -53 -6 -18 -17 -33 -25 -33 -8 0 -14 -9 -14 -20 0 -25 -39 -110 -51 -110 -5 0 -9 -11 -9 -23 0 -13 -9 -34 -20 -47 -11 -13 -20 -34 -20 -47 0 -12 -5 -23 -11 -23 -5 0 -8 -4 -5 -9 3 -5 0 -11 -7 -14 -10 -4 -19 -28 -44 -119 -2 -10 -9 -18 -14 -18 -5 0 -9 -8 -9 -18 0 -9 -7 -25 -15 -36 -8 -10 -17 -38 -21 -62 -4 -26 -12 -44 -19 -44 -14 0 -25 -21 -25 -48 0 -9 -7 -30 -15 -46 -9 -16 -13 -36 -11 -43 3 -7 -1 -13 -9 -13 -8 0 -17 -15 -21 -38 -3 -20 -12 -47 -20 -59 -8 -12 -14 -29 -14 -38 0 -8 -4 -15 -10 -15 -6 0 -10 -9 -10 -19 0 -11 -5 -23 -11 -26 -6 -4 -8 -13 -5 -21 3 -8 2 -14 -3 -14 -4 0 -13 -32 -20 -70 -7 -38 -17 -70 -22 -70 -5 0 -9 -9 -9 -19 0 -11 -4 -22 -8 -25 -5 -3 -14 -37 -21 -76 -7 -38 -18 -73 -25 -78 -11 -7 -56 -214 -56 -259 0 -12 -7 -24 -16 -27 -11 -4 -15 -14 -12 -31 3 -14 2 -25 -2 -25 -4 0 -13 -47 -20 -105 -8 -69 -17 -105 -25 -105 -8 0 -19 -62 -35 -198 -13 -108 -27 -199 -30 -202 -4 -3 -15 -102 -24 -220 -9 -118 -19 -233 -22 -255 -4 -22 -7 -82 -8 -133 -1 -66 -5 -92 -14 -92 -9 0 -12 -49 -12 -210 0 -190 -6 -240 -24 -194 z M 756 -15592 c 509 2170 1498 4070 2979 5722 174 194 600 625 809 818 1348 1246 2927 2180 4656 2755 1120 373 2247 580 3469 638 254 12 1090 6 1353 -10 1569 -97 3048 -462 4503 -1113 209 -93 741 -362 973 -491 668 -372 1447 -914 2044 -1425 521 -444 1121 -1051 1534 -1550 208 -252 195 -229 152 -275 -20 -20 -43 -37 -52 -37 -9 0 -16 -4 -16 -10 0 -5 -7 -10 -16 -10 -8 0 -42 -27 -74 -60 -36 -37 -67 -60 -80 -60 -13 0 -41 -20 -70 -50 -29 -30 -57 -50 -70 -50 -13 0 -41 -20 -70 -50 -28 -30 -57 -50 -69 -50 -13 0 -42 -21 -71 -50 -30 -30 -58 -50 -71 -50 -12 0 -34 -14 -49 -30 -15 -16 -34 -30 -43 -30 -10 0 -17 -4 -17 -10 0 -5 -7 -10 -16 -10 -9 0 -33 -18 -54 -40 -21 -22 -45 -40 -54 -40 -9 0 -16 -4 -16 -10 0 -5 -8 -10 -18 -10 -10 0 -24 -9 -33 -20 -8 -11 -22 -20 -32 -20 -9 0 -17 -5 -17 -10 0 -6 -9 -10 -20 -10 -13 0 -20 -7 -20 -20 0 -15 -7 -20 -28 -20 -17 0 -36 -11 -53 -30 -14 -17 -33 -30 -42 -30 -10 0 -19 -4 -21 -10 -2 -6 -10 -10 -17 -10 -8 0 -21 -9 -30 -20 -8 -11 -22 -20 -32 -20 -9 0 -19 -5 -21 -10 -2 -6 -10 -10 -17 -10 -8 0 -21 -9 -30 -20 -8 -11 -21 -20 -29 -20 -8 0 -18 -5 -21 -10 -3 -6 -12 -10 -20 -10 -8 0 -17 -5 -20 -10 -3 -6 -13 -10 -20 -10 -8 0 -21 -9 -30 -20 -8 -11 -22 -20 -32 -20 -9 0 -28 -14 -40 -30 -16 -20 -33 -30 -50 -30 -18 0 -35 -10 -50 -30 -13 -16 -31 -30 -40 -30 -10 0 -19 -4 -21 -10 -2 -5 -15 -10 -30 -10 -17 0 -34 -10 -49 -30 -13 -16 -31 -30 -40 -30 -10 0 -19 -4 -21 -10 -2 -6 -15 -11 -29 -12 -14 -2 -36 -15 -49 -30 -14 -16 -31 -28 -39 -28 -8 0 -17 -5 -20 -10 -3 -6 -17 -10 -30 -11 -13 0 -36 -13 -51 -30 -16 -17 -36 -29 -51 -29 -14 0 -27 -5 -29 -10 -2 -6 -10 -10 -18 -10 -8 0 -27 -14 -41 -30 -16 -19 -35 -30 -51 -30 -14 0 -28 -4 -30 -10 -2 -6 -10 -10 -18 -10 -8 0 -27 -14 -41 -30 -16 -19 -35 -30 -51 -30 -14 0 -28 -4 -30 -10 -2 -5 -11 -10 -20 -10 -9 0 -18 -4 -20 -10 -2 -6 -11 -10 -20 -10 -9 0 -18 -5 -20 -10 -2 -6 -10 -10 -18 -10 -8 0 -22 -9 -31 -20 -9 -11 -23 -20 -31 -20 -9 0 -18 -4 -20 -10 -2 -5 -11 -10 -20 -10 -9 0 -18 -4 -20 -10 -2 -6 -14 -10 -28 -10 -15 0 -35 -12 -51 -30 -14 -17 -33 -30 -41 -30 -9 0 -18 -4 -20 -10 -2 -5 -15 -10 -30 -10 -14 0 -28 -4 -30 -10 -2 -6 -11 -10 -20 -10 -9 0 -18 -5 -20 -10 -2 -6 -11 -10 -20 -10 -9 0 -18 -5 -20 -10 -2 -6 -11 -10 -21 -10 -9 0 -23 -9 -31 -20 -7 -11 -20 -20 -28 -20 -9 0 -18 -4 -20 -10 -2 -6 -24 -10 -50 -10 -25 0 -48 -5 -50 -10 -2 -6 -11 -10 -20 -10 -9 0 -18 -5 -20 -10 -2 -6 -10 -10 -18 -10 -8 0 -22 -9 -31 -20 -9 -11 -23 -20 -31 -20 -9 0 -18 -4 -20 -10 -2 -6 -11 -10 -20 -10 -9 0 -18 -5 -20 -10 -2 -6 -11 -10 -20 -10 -9 0 -18 -5 -20 -10 -2 -6 -15 -10 -30 -10 -14 0 -28 -4 -30 -10 -2 -6 -11 -10 -20 -10 -9 0 -18 -4 -20 -10 -2 -5 -14 -10 -28 -10 -15 0 -35 -12 -51 -30 -14 -17 -33 -30 -41 -30 -9 0 -18 -4 -20 -10 -2 -6 -15 -10 -30 -10 -14 0 -28 -5 -30 -10 -2 -6 -11 -10 -20 -10 -9 0 -18 -4 -20 -10 -2 -6 -11 -10 -20 -10 -9 0 -18 -5 -20 -10 -2 -6 -15 -10 -30 -10 -14 0 -28 -5 -30 -10 -2 -6 -11 -10 -20 -10 -9 0 -18 -4 -20 -10 -2 -6 -11 -10 -20 -10 -9 0 -18 -5 -20 -10 -2 -6 -15 -10 -30 -10 -14 0 -28 -4 -30 -10 -2 -6 -10 -10 -18 -10 -8 0 -27 -14 -41 -30 -16 -19 -36 -30 -51 -30 -14 0 -28 -4 -30 -10 -2 -5 -11 -10 -20 -10 -9 0 -18 -4 -20 -10 -2 -5 -11 -10 -20 -10 -9 0 -18 -4 -20 -10 -2 -6 -15 -10 -30 -10 -14 0 -28 -5 -30 -10 -2 -6 -11 -10 -20 -10 -9 0 -18 -4 -20 -10 -2 -6 -11 -10 -20 -10 -9 0 -18 -4 -20 -10 -2 -5 -15 -10 -30 -10 -14 0 -28 -4 -30 -10 -2 -5 -11 -10 -20 -10 -9 0 -18 -4 -20 -10 -2 -6 -11 -10 -20 -10 -9 0 -18 -5 -20 -10 -2 -6 -15 -10 -30 -10 -14 0 -28 -4 -30 -10 -2 -6 -11 -10 -20 -10 -9 0 -18 -4 -20 -10 -2 -5 -15 -10 -30 -10 -14 0 -28 -4 -30 -10 -2 -5 -11 -10 -20 -10 -9 0 -18 -4 -20 -10 -2 -6 -11 -10 -20 -10 -9 0 -18 -5 -20 -10 -2 -6 -15 -10 -30 -10 -14 0 -28 -4 -30 -10 -2 -6 -11 -10 -20 -10 -9 0 -18 -4 -20 -10 -2 -5 -11 -10 -20 -10 -9 0 -18 -4 -20 -10 -2 -5 -15 -10 -30 -10 -14 0 -28 -4 -30 -10 -2 -5 -11 -10 -20 -10 -9 0 -18 -4 -20 -10 -2 -6 -11 -10 -20 -10 -9 0 -18 -4 -20 -10 -2 -6 -15 -10 -30 -10 -14 0 -28 -5 -30 -10 -2 -5 -11 -10 -20 -10 -9 0 -18 -4 -20 -10 -2 -6 -11 -10 -20 -10 -9 0 -18 -5 -20 -10 -2 -5 -23 -10 -48 -10 -33 0 -49 -6 -61 -20 -11 -13 -28 -20 -51 -20 -20 0 -38 -5 -40 -10 -2 -5 -11 -10 -20 -10 -9 0 -18 -4 -20 -10 -2 -6 -11 -10 -20 -10 -9 0 -18 -5 -20 -10 -2 -5 -15 -10 -30 -10 -14 0 -28 -4 -30 -10 -2 -6 -11 -10 -20 -10 -9 0 -18 -4 -20 -10 -2 -6 -11 -10 -20 -10 -9 0 -18 -5 -20 -10 -2 -5 -15 -10 -30 -10 -14 0 -28 -4 -30 -10 -2 -6 -11 -10 -20 -10 -9 0 -18 -5 -20 -10 -2 -5 -15 -10 -30 -10 -14 0 -28 -4 -30 -10 -2 -6 -11 -10 -20 -10 -9 0 -18 -4 -20 -10 -2 -6 -11 -10 -20 -10 -9 0 -18 -5 -20 -11 -9 -25 -60 2 -163 87 -365 304 -780 571 -1233 794 -489 242 -931 398 -1447 512 -498 111 -939 156 -1465 150 -405 -5 -647 -26 -1020 -90 -896 -153 -1760 -501 -2512 -1012 -890 -604 -1615 -1421 -2111 -2378 l -58 -112 -3360 0 -3359 0 6 28 z " />
  </g>
</svg>